<?xml version="1.0" encoding="UTF-8" standalone="no"?><!DOCTYPE svg PUBLIC "-//W3C//DTD SVG 1.1//EN" "http://www.w3.org/Graphics/SVG/1.1/DTD/svg11.dtd"><svg width="100%" height="100%" viewBox="0 0 515 89" version="1.1" xmlns="http://www.w3.org/2000/svg" xmlns:xlink="http://www.w3.org/1999/xlink" xml:space="preserve" xmlns:serif="http://www.serif.com/" style="fill-rule:evenodd;clip-rule:evenodd;stroke-linejoin:round;stroke-miterlimit:1.41421;"><g><path d="M171.949,35.385c-0.233,0.792 -1.106,1.19 -1.874,0.895c-2.373,-0.916 -5.059,-1.571 -7.569,-1.571c-4.324,0 -8.396,1.302 -8.396,5.628c0,2.336 1.301,3.548 5.456,4.849l3.028,0.949c6.058,1.901 8.655,4.674 8.655,10.036c0,9.256 -6.492,15.577 -18.256,15.577c-4.624,0 -8.578,-0.728 -11.931,-1.895c-0.815,-0.283 -1.207,-1.191 -0.965,-2.021l1.384,-4.801c0.231,-0.796 1.119,-1.173 1.888,-0.865c3.03,1.224 6.389,2.055 9.363,2.055c5.281,0 8.998,-1.819 8.998,-6.06c0,-2.508 -1.731,-3.458 -5.626,-4.673l-3.288,-1.036c-5.801,-1.905 -8.397,-5.367 -8.397,-10.904c0,-9.432 7.879,-14.533 18.263,-14.533c3.122,0 6.693,0.697 9.667,1.72c0.822,0.278 1.218,1.19 0.967,2.02l-1.367,4.63Z" style="fill:#00b4d5;fill-rule:nonzero;"/><path d="M192.398,10.685c0.807,0 1.41,0.736 1.258,1.528l-6.368,32.914c6.002,-4.377 11.245,-9.522 15.873,-15.492c0.588,-0.765 1.502,-1.211 2.467,-1.211l6.928,0c0.666,0 1.036,0.753 0.655,1.297c-4.553,6.423 -9.766,12.35 -15.28,17.135l8.775,22.09c0.274,0.698 -0.239,1.452 -0.984,1.452l-7.361,0c-0.93,0 -1.767,-0.587 -2.092,-1.46l-6.039,-16.455c-1.816,1.212 -3.547,2.252 -5.019,3.031l-2.564,13.356c-0.171,0.881 -0.95,1.528 -1.844,1.528l-6.325,0c-0.805,0 -1.411,-0.737 -1.256,-1.528l11,-56.657c0.169,-0.886 0.946,-1.528 1.853,-1.528l6.323,0Z" style="fill:#00b4d5;fill-rule:nonzero;"/><path d="M224.767,28.424c0.812,0 1.412,0.736 1.261,1.533l-4.291,22.094c-0.346,1.644 -0.693,3.719 -0.693,5.713c0,2.594 1.472,4.327 4.935,4.327c3.376,0 7.351,-1.472 10.296,-4.241l5.499,-27.898c0.175,-0.886 0.954,-1.528 1.853,-1.528l6.325,0c0.804,0 1.408,0.736 1.252,1.533l-5.669,29.104c-0.692,3.372 -1.472,7.181 -2.163,10.211c-3.289,13.673 -9.519,19.728 -21.981,19.728c-2.743,0 -5.478,-0.342 -7.853,-0.98c-0.873,-0.239 -1.425,-1.117 -1.211,-2.003l1.083,-4.42c0.192,-0.809 0.999,-1.323 1.808,-1.13c1.795,0.428 3.849,0.744 5.741,0.744c7.36,0 11.681,-3.115 13.238,-11.593l0.61,-3.205c-3.201,2.769 -7.964,4.588 -12.462,4.588c-7.271,0 -11.165,-3.634 -11.165,-9.432c0,-3.462 0.693,-7.271 1.472,-11.247l3.942,-20.365c0.175,-0.891 0.952,-1.533 1.852,-1.533l6.321,0Z" style="fill:#00b4d5;fill-rule:nonzero;"/><path d="M281.863,35.417c-0.235,0.792 -1.104,1.19 -1.874,0.895c-2.371,-0.917 -5.06,-1.571 -7.57,-1.571c-4.322,0 -8.388,1.301 -8.388,5.627c0,2.337 1.292,3.548 5.447,4.849l3.03,0.95c6.056,1.9 8.654,4.673 8.654,10.036c0,9.256 -6.492,15.576 -18.257,15.576c-4.617,0 -8.578,-0.727 -11.926,-1.895c-0.818,-0.283 -1.209,-1.19 -0.972,-2.02l1.389,-4.802c0.229,-0.795 1.119,-1.172 1.889,-0.864c3.026,1.224 6.385,2.054 9.357,2.054c5.279,0 9,-1.819 9,-6.059c0,-2.508 -1.727,-3.458 -5.621,-4.674l-3.295,-1.036c-5.794,-1.904 -8.388,-5.366 -8.388,-10.904c0,-9.432 7.874,-14.533 18.261,-14.533c3.123,0 6.688,0.698 9.667,1.721c0.813,0.278 1.211,1.19 0.963,2.019l-1.366,4.631Z" style="fill:#00b4d5;fill-rule:nonzero;"/><path d="M318.795,36.363c-0.214,0.766 -1.074,1.125 -1.801,0.791c-2.277,-1.039 -4.857,-1.634 -7.794,-1.634c-9.17,0 -14.714,7.878 -14.714,17.913c0.088,5.975 2.253,9.955 9.004,10.04c2.989,0.073 6.109,-0.531 8.929,-1.502c0.689,-0.235 1.444,0.248 1.361,0.971l-0.595,5.042c-0.111,0.976 -0.771,1.805 -1.695,2.127c-3.136,1.091 -6.556,1.668 -10.424,1.668c-11.252,0 -16.53,-6.401 -16.53,-16.963c0,-14.966 8.482,-27.77 24.746,-27.77c3.946,0 7.275,0.736 9.984,1.9c0.843,0.364 1.267,1.306 1.016,2.187l-1.487,5.23Z" style="fill:#00b4d5;fill-rule:nonzero;"/><path d="M342.255,50.147c-8.738,0 -15.145,2.854 -15.145,9.171c0,2.773 1.648,4.502 5.369,4.502c3.545,0 7.268,-1.819 9.601,-4.241l1.9,-9.432l-1.725,0Zm-16.566,-18.607c0.022,-0.942 0.623,-1.78 1.515,-2.084c4.143,-1.383 9.377,-2.41 13.926,-2.41c8.653,0 14.276,2.594 14.276,10.121c0,1.558 -0.259,3.463 -0.689,5.538l-3.372,17.738c-0.523,2.662 -0.263,4.151 0.886,4.734c0.706,0.355 1.296,1.035 1.138,1.81l-0.509,2.49c-0.197,0.963 -0.924,1.755 -1.884,1.961c-0.979,0.205 -2.07,0.341 -3.098,0.341c-3.898,0 -5.798,-1.818 -6.055,-5.019l-0.261,0c-2.854,3.115 -7.181,5.019 -12.291,5.019c-7.352,0 -12.111,-3.718 -12.111,-11.16c0,-10.04 7.962,-17.221 25.788,-17.221l2.339,0c0.255,-1.301 0.426,-2.597 0.426,-3.548c0,-3.462 -1.733,-5.019 -7.181,-5.019c-3.466,0 -7.621,0.826 -11.546,2.161c-0.697,0.244 -1.416,-0.296 -1.399,-1.031l0.102,-4.421Z" style="fill:#00b4d5;fill-rule:nonzero;"/><path d="M371.677,28.424c0.836,0 1.489,0.719 1.408,1.554l-0.283,2.949l0.084,0c4.239,-3.548 9.695,-5.881 14.971,-5.881c6.578,0 10.901,3.805 10.901,9.864c0,2.94 -0.429,5.363 -0.946,8.131l-4.554,23.829c-0.175,0.881 -0.95,1.528 -1.848,1.528l-6.326,0c-0.804,0 -1.416,-0.737 -1.253,-1.528l4.198,-21.753c0.437,-2.161 0.783,-4.588 0.783,-6.055c0,-3.202 -1.733,-4.845 -5.369,-4.845c-3.977,0 -8.48,2.072 -11.68,5.102l-5.247,27.551c-0.167,0.881 -0.946,1.528 -1.843,1.528l-6.322,0c-0.814,0 -1.421,-0.737 -1.263,-1.528l7.459,-38.913c0.171,-0.891 0.946,-1.533 1.844,-1.533l5.286,0Z" style="fill:#00b4d5;fill-rule:nonzero;"/><path d="M414.514,28.424c0.837,0 1.481,0.719 1.408,1.554l-0.287,2.949l0.086,0c4.241,-3.548 9.691,-5.881 14.967,-5.881c6.58,0 10.907,3.805 10.907,9.864c0,2.94 -0.437,5.363 -0.95,8.131l-4.554,23.829c-0.171,0.881 -0.949,1.528 -1.848,1.528l-6.326,0c-0.809,0 -1.409,-0.737 -1.262,-1.528l4.211,-21.753c0.433,-2.161 0.779,-4.588 0.779,-6.055c0,-3.202 -1.733,-4.845 -5.369,-4.845c-3.977,0 -8.475,2.072 -11.68,5.102l-5.242,27.551c-0.168,0.881 -0.951,1.528 -1.85,1.528l-6.325,0c-0.808,0 -1.416,-0.737 -1.264,-1.528l7.465,-38.913c0.167,-0.891 0.946,-1.533 1.849,-1.533l5.285,0Z" style="fill:#00b4d5;fill-rule:nonzero;"/><path d="M473.177,46.599c0.355,-1.301 0.693,-3.201 0.693,-5.02c0,-3.894 -1.729,-6.662 -6.141,-6.662c-6.402,0 -10.3,4.672 -11.682,11.682l17.13,0Zm-18.166,6.834c-0.176,1.302 -0.09,2.77 0.085,3.809c0.78,4.241 4.066,6.317 9.603,6.317c3.865,0 7.922,-0.595 11.487,-1.729c0.686,-0.218 1.395,0.308 1.305,1.023l-0.578,4.789c-0.111,0.937 -0.706,1.767 -1.6,2.079c-3.921,1.369 -8.354,2.058 -12.518,2.058c-11.94,0 -17.738,-5.105 -17.738,-16.697c0,-10.041 3.286,-19.297 10.386,-24.231c3.548,-2.512 7.96,-3.805 13.498,-3.805c10.039,0 14.451,5.705 14.451,14.191c0,2.923 -0.347,6.813 -1.155,10.75c-0.178,0.869 -0.985,1.446 -1.871,1.446l-25.355,0Z" style="fill:#00b4d5;fill-rule:nonzero;"/><path d="M498.888,28.424c0.837,0 1.502,0.715 1.442,1.554l-0.239,3.381l0.171,0c3.205,-3.894 7.881,-5.884 12.29,-5.884c0.487,0 0.904,0.012 1.258,0.038c0.827,0.051 1.293,0.92 1.044,1.707l-1.75,5.598c-0.277,0.894 -1.146,1.463 -2.079,1.502c-4.374,0.188 -8.598,1.438 -11.452,3.445l-5.589,29.105c-0.173,0.881 -0.948,1.528 -1.849,1.528l-6.325,0c-0.804,0 -1.416,-0.737 -1.26,-1.528l7.461,-38.913c0.176,-0.891 0.946,-1.533 1.844,-1.533l5.033,0Z" style="fill:#00b4d5;fill-rule:nonzero;"/><path d="M27.095,44.213c-0.007,-0.07 -0.013,-0.096 0,0Zm0,0c0.006,0.062 0.016,0.145 0.022,0.196c-0.009,-0.092 -0.016,-0.155 -0.022,-0.196Zm14.859,35.003c0,-36.364 27.886,-66.21 63.44,-69.332c-5.531,-5.601 -13.206,-9.079 -21.699,-9.079c-15.635,0 -28.517,11.761 -30.298,26.912c-2.653,-1.663 -5.792,-2.632 -9.155,-2.632c-9.528,0 -18.206,9.535 -17.118,19.366c-2.571,-1.348 -5.496,-2.114 -8.599,-2.114c-10.233,0 -18.525,8.294 -18.525,18.527c0,9.323 6.883,17.036 15.847,18.333c0.703,0.126 1.423,0.195 2.162,0.195l23.946,0c0,-0.06 -0.004,-0.116 -0.001,-0.176Zm83.713,-13.963c-3.748,-3.748 -8.615,-5.659 -13.519,-5.765l0,0.003c-0.175,-0.006 -0.348,-0.003 -0.519,-0.003c-0.172,0 -0.347,-0.003 -0.52,0.003l0,-0.003c-4.901,0.106 -9.77,2.017 -13.517,5.765c-3.9,3.901 -5.808,9.024 -5.758,14.139l9.901,0c0.647,-3.306 1.246,-4.978 3.133,-6.866c1.865,-1.864 4.317,-2.738 6.761,-2.718c2.443,-0.02 4.901,0.854 6.762,2.718c0.645,0.646 1.16,1.367 1.574,2.128c2.867,-2.107 5.245,-4.832 6.986,-7.982c-0.401,-0.488 -0.828,-0.962 -1.284,-1.419Zm-98.543,-20.802c-0.003,-0.019 -0.003,-0.026 -0.007,-0.042c0.004,0.024 0.007,0.042 0.007,0.042Zm102.939,12.047c0.073,-0.806 0.112,-1.623 0.112,-2.448c0,-3.929 -0.903,-7.644 -2.505,-10.957c-5.093,-2.246 -10.566,-3.372 -16.041,-3.361c-10.138,-0.019 -20.273,3.821 -28.004,11.553c-7.754,7.753 -11.6,17.939 -11.551,28.107l10.311,0c-0.042,-7.543 2.775,-15.097 8.515,-20.836c5.582,-5.582 12.882,-8.401 20.209,-8.51l0,-0.006c0.173,-0.003 0.348,0.004 0.52,0.004c0.171,0 0.344,-0.007 0.519,-0.004l0,0.006c6.363,0.095 12.699,2.236 17.915,6.452Zm-60.862,-19.649c11.71,-11.712 27.071,-17.537 42.428,-17.522c0.038,0 0.08,0.004 0.121,0.004c1.366,3.197 2.201,6.674 2.397,10.323c-0.815,-0.041 -1.631,-0.06 -2.452,-0.06c-0.022,0 -0.043,0.002 -0.066,0.003c-0.024,-0.001 -0.045,-0.003 -0.065,-0.003c-13.257,0 -25.717,5.165 -35.087,14.533c-9.372,9.374 -14.538,21.834 -14.538,35.089c0,0.057 0.004,0.116 0.006,0.176l-10.276,0c-0.041,-15.392 5.784,-30.8 17.532,-42.543Z" style="fill:#00b4d5;fill-rule:nonzero;"/></g></svg>