<svg width="1996" height="1248" viewBox="0 0 1996 1248" fill="none" xmlns="http://www.w3.org/2000/svg">
<path d="M197.001 2.35286C197.347 3.92144 198.387 5.49001 200.12 7.05859C201.853 8.6272 203.758 9.56835 205.837 9.88203C207.917 10.1957 210.169 9.88203 212.595 8.94089C215.02 7.99974 223.684 14.4309 238.584 28.2344C253.485 42.0379 286.232 48.9396 336.825 48.9396C387.418 48.9396 412.888 49.567 413.234 50.8219C413.581 52.0767 414.794 53.4884 416.873 55.057C418.952 56.6256 421.551 57.253 424.67 56.9393C427.789 56.6256 430.214 55.6845 431.947 54.1159C433.68 52.5473 434.546 50.1944 434.546 47.0573C434.546 43.9202 433.506 41.4104 431.427 39.5281C429.348 37.6458 426.403 36.8616 422.591 37.1753C418.778 37.4889 416.18 38.9007 414.794 41.4104C413.408 43.9202 387.591 45.175 337.345 45.175C287.099 45.175 254.698 38.587 240.144 25.4109C225.59 12.2349 218.486 4.70573 218.832 2.82344C219.006 1.88229 219.178 0.941146 219.352 0C218.659 0 217.966 0 217.273 0C215.887 0 213.981 1.09801 211.555 3.29401C209.13 5.49001 207.223 6.43116 205.837 6.11745C204.452 5.80374 203.239 4.70573 202.199 2.82344C201.159 0.941146 199.946 0 198.56 0C197.867 0 197.175 0 196.481 0C196.655 0.784285 196.827 1.56858 197.001 2.35286ZM267.173 13.6466C276.875 22.7444 311.009 27.2932 369.572 27.2932C428.135 27.2932 458.11 29.0186 459.496 32.4695C460.882 35.9204 462.961 38.2733 465.733 39.5281C468.506 40.783 472.317 40.9398 477.169 39.9987C482.02 39.0576 485.485 37.1753 487.565 34.3518C489.644 31.5284 490.337 28.0775 489.644 23.9992C488.95 19.921 487.045 16.7837 483.926 14.5878C480.807 12.3918 476.649 11.6074 471.451 12.2349C466.253 12.8624 462.615 14.7446 460.535 17.8818C458.456 21.0189 428.655 22.5875 371.131 22.5875C313.608 22.5875 280.861 18.8229 272.891 11.2938C264.92 3.76458 259.55 0 256.777 0C255.391 0 254.005 0 252.619 0C257.47 4.54887 262.321 9.09778 267.173 13.6466ZM286.925 4.23516C287.618 7.05859 288.831 9.25457 290.564 10.8232C292.297 12.3918 294.548 13.4897 297.321 14.1172C300.093 14.7447 303.385 14.5878 307.197 13.6466C311.009 12.7055 313.954 10.5095 316.033 7.05859C318.112 3.60772 337.518 1.88229 374.25 1.88229C392.616 1.88229 410.982 1.88229 429.348 1.88229C429.348 1.56858 429.348 1.25486 429.348 0.941146C429.348 0.627434 429.348 0.313712 429.348 0C409.942 0 390.537 0 371.131 0C332.32 0 312.741 0.784285 312.395 2.35286C312.049 3.92144 311.009 5.49001 309.276 7.05859C307.543 8.6272 305.291 9.41146 302.519 9.41146C299.746 9.41146 297.667 9.09778 296.281 8.47031C294.895 7.84288 293.682 6.27431 292.643 3.76458C291.603 1.25486 290.217 0 288.484 0C287.618 0 286.751 0 285.885 0C286.232 1.41172 286.579 2.82344 286.925 4.23516ZM637.265 4.23516C637.265 7.05859 618.898 25.0973 582.167 58.351C545.435 91.6048 524.816 107.761 520.311 106.82C515.807 105.879 511.475 106.663 507.317 109.173C503.158 111.683 500.906 115.133 500.559 119.526C500.213 123.918 501.079 127.368 503.158 129.878C505.237 132.388 509.05 133.956 514.594 134.584C520.138 135.212 524.124 134.584 526.549 132.702C528.974 130.819 530.707 128.937 531.747 127.055C532.786 125.172 532.786 122.192 531.747 118.114C530.707 114.036 549.074 95.0557 586.845 61.1745C624.616 27.2932 643.502 8.6272 643.502 5.1763C643.502 3.45087 643.502 1.72543 643.502 0C642.462 0 641.423 0 640.383 0C639.344 0 638.304 0 637.265 0C637.265 1.41172 637.265 2.82344 637.265 4.23516ZM679.888 4.23516C679.194 7.05859 652.858 31.999 600.879 79.0563C548.9 126.114 521.697 149.642 519.272 149.642C516.846 149.642 515.287 149.956 514.594 150.583C513.9 151.211 513.9 152.779 514.594 155.289C515.287 157.799 516.673 159.054 518.752 159.054C520.831 159.054 522.217 157.799 522.91 155.289C523.604 152.779 550.459 127.525 603.478 79.5268C656.497 31.5284 684.392 7.21546 687.165 6.58802C689.937 5.96059 691.323 4.70573 691.323 2.82344C691.323 1.88229 691.323 0.941146 691.323 0C690.803 0 690.283 0 689.764 0C689.244 0 688.724 0 688.204 0C688.378 0.470573 688.55 0.941146 688.724 1.41172C689.07 2.35286 688.898 3.13715 688.204 3.76458C687.511 4.39202 686.645 4.54887 685.605 4.23516C684.566 3.92144 684.219 3.13715 684.566 1.88229C684.739 1.25486 684.912 0.627434 685.085 0C684.392 0 683.7 0 683.006 0C681.62 0 680.581 1.41172 679.888 4.23516ZM708.996 11.2938C708.996 18.8229 678.674 50.1944 618.032 105.408C557.39 160.623 510.262 188.386 476.649 188.7C443.036 189.013 425.536 188.072 424.15 185.876C422.764 183.681 420.338 182.269 416.873 181.641C413.408 181.013 410.289 181.955 407.517 184.465C404.744 186.975 403.705 189.954 404.398 193.405C405.091 196.857 406.131 199.052 407.517 199.993C408.902 200.935 411.329 201.405 414.794 201.405C418.259 201.405 421.205 199.836 423.63 196.699C426.056 193.563 444.076 191.994 477.689 191.994C511.301 191.994 558.95 164.073 620.631 108.232C682.313 52.3905 713.154 20.3915 713.154 12.2349C713.154 8.1566 713.154 4.0783 713.154 0C712.461 0 711.768 0 711.075 0C710.382 0 709.689 0 708.996 0C708.996 3.76458 708.996 7.52917 708.996 11.2938ZM660.655 104.467C584.072 174.112 545.608 223.209 545.261 251.757C544.915 280.304 509.222 326.735 438.184 391.046C367.147 455.357 330.934 487.984 329.548 488.925C328.162 489.866 315.514 490.337 291.603 490.337C267.693 490.337 235.466 508.847 194.922 545.865C154.378 582.883 132.893 600.922 130.468 599.981C128.042 599.039 125.27 598.569 122.151 598.569C119.032 598.569 115.914 599.353 112.795 600.922C109.676 602.491 107.597 605 106.557 608.451C105.518 611.902 106.037 615.667 108.117 619.745C110.196 623.823 112.101 626.175 113.834 626.803C115.567 627.431 119.206 627.431 124.75 626.803C130.294 626.175 134.106 623.98 136.185 620.215C138.265 616.451 138.958 612.999 138.265 609.863C137.571 606.726 157.497 586.805 198.041 550.1C238.584 513.395 270.985 495.043 295.242 495.043C319.498 495.043 368.359 461.789 441.823 395.281C515.287 328.773 552.019 281.403 552.019 253.168C552.019 224.934 589.444 177.093 664.294 109.643C739.144 42.1947 777.782 7.05859 780.207 4.23516C781.42 2.82344 782.633 1.41172 783.846 0C782.46 0 781.073 0 779.688 0C776.915 0 737.238 34.8224 660.655 104.467ZM719.911 100.232C646.794 167.053 609.369 201.092 607.636 202.346C605.904 203.601 603.305 203.915 599.84 203.288C596.375 202.66 593.776 202.817 592.043 203.758C590.31 204.699 588.924 206.739 587.884 209.876C586.845 213.012 587.191 215.836 588.924 218.346C590.657 220.856 593.256 222.268 596.721 222.581C600.186 222.894 602.785 222.581 604.518 221.64C606.251 220.699 607.463 219.758 608.156 218.816C608.85 217.875 609.022 215.522 608.676 211.758C608.33 207.993 608.676 205.483 609.716 204.229C610.755 202.974 648.354 169.093 722.51 102.585C796.667 36.0772 833.919 2.35286 834.266 1.41172C834.439 0.941146 834.612 0.470573 834.785 0C833.919 0 833.052 0 832.186 0C830.453 0 793.028 33.4107 719.911 100.232ZM844.661 31.0578C822.137 51.763 808.276 61.8019 803.078 61.1745C797.88 60.547 793.722 61.1745 790.603 63.0568C787.484 64.9391 785.579 68.39 784.885 73.4094C784.192 78.4288 784.712 82.0366 786.445 84.2326C788.178 86.4285 791.469 87.9971 796.321 88.9383C801.173 89.8794 805.331 89.4089 808.796 87.5266C812.261 85.6443 814.513 83.6051 815.553 81.4091C816.593 79.2131 816.593 76.0759 815.553 71.9977C814.513 67.9194 825.949 55.2139 849.859 33.8813C873.77 12.5486 885.725 1.56858 885.725 0.941146C885.725 0.627434 885.725 0.313712 885.725 0C884.512 0 883.3 0 882.086 0C879.661 0 867.186 10.3526 844.661 31.0578ZM961.615 4.70573C958.15 7.84288 956.243 10.8232 955.897 13.6466C955.551 16.4701 955.897 18.9798 956.936 21.1758C957.976 23.3718 957.802 25.2541 956.417 26.8227C955.031 28.3913 935.971 45.8025 899.24 79.0563C862.508 112.31 827.508 128.937 794.242 128.937C760.975 128.937 731.173 141.015 704.838 165.171C678.502 189.327 664.467 201.092 662.734 200.464C661.001 199.836 657.536 199.836 652.339 200.464C647.141 201.092 643.502 202.66 641.423 205.17C639.344 207.68 638.478 211.13 638.824 215.522C639.17 219.915 640.903 223.209 644.022 225.404C647.141 227.6 651.473 228.385 657.017 227.757C662.561 227.13 666.373 225.247 668.452 222.11C670.531 218.974 671.051 215.365 670.011 211.287C668.972 207.209 681.62 193.248 707.956 169.406C734.292 145.564 763.92 133.643 796.841 133.643C829.761 133.643 865.627 115.918 904.438 80.468C943.248 45.0181 963.52 27.7638 965.253 28.705C966.986 29.6461 969.238 30.1167 972.01 30.1167C974.783 30.1167 978.074 28.8618 981.886 26.3521C985.699 23.8423 987.778 20.3915 988.124 15.9995C988.47 11.6074 988.298 8.784 987.604 7.52917C986.911 6.27431 985.179 4.70573 982.406 2.82344C979.634 0.941146 976.342 0 972.53 0C968.718 0 965.079 1.56858 961.615 4.70573ZM36.9052 7.52917C36.5587 10.0389 37.7715 11.6074 40.5438 12.2349C43.316 12.8624 50.4198 18.3523 61.8552 28.705C73.2906 39.0576 78.835 44.8613 78.4885 46.1161C78.142 47.371 78.4885 48.6259 79.5281 49.8807C80.5677 51.1356 82.1271 51.6061 84.2063 51.2924C86.2854 50.9788 87.6715 50.5082 88.3646 49.8807C89.0577 49.2533 89.2309 47.9984 88.8844 46.1161C88.5379 44.2339 87.1517 43.1358 84.726 42.8221C82.3004 42.5085 79.8746 41.4104 77.449 39.5281C75.0233 37.6458 69.1323 32.4695 59.776 23.9992C50.4198 15.5289 45.7417 10.1957 45.7417 7.99974C45.7417 5.80374 44.3556 4.54887 41.5833 4.23516C40.1973 4.0783 38.8111 3.92144 37.425 3.76458C37.2517 5.01944 37.0785 6.27431 36.9052 7.52917ZM92.0031 5.64688C90.9635 6.90173 90.617 8.1566 90.9635 9.41146C91.31 10.6663 92.0031 11.6074 93.0427 12.2349C94.0823 12.8624 95.2952 13.0192 96.6813 12.7055C98.0673 12.3918 104.652 17.5681 116.433 28.2344C128.215 38.9007 134.106 45.175 134.106 47.0573C134.106 48.9396 134.626 50.1944 135.666 50.8219C136.705 51.4493 138.091 51.6061 139.824 51.2924C141.557 50.9788 142.769 50.5082 143.462 49.8807C144.156 49.2533 144.328 47.9984 143.982 46.1161C143.636 44.2339 142.249 43.1358 139.824 42.8221C137.399 42.5085 134.972 41.4104 132.547 39.5281C130.122 37.6458 124.23 32.4695 114.874 23.9992C105.518 15.5289 100.84 10.3526 100.84 8.47031C100.84 6.58802 99.6267 5.33316 97.201 4.70573C94.7754 4.0783 93.0427 4.39202 92.0031 5.64688ZM148.141 5.1763C147.101 6.11745 146.755 7.52917 147.101 9.41146C147.447 11.2938 148.834 12.2349 151.259 12.2349C153.685 12.2349 160.789 17.5681 172.571 28.2344C184.352 38.9007 190.07 45.0181 189.724 46.5867C189.378 48.1553 190.417 49.4102 192.843 50.3513C195.268 51.2925 197.001 51.2925 198.041 50.3513C199.08 49.4102 199.6 48.1553 199.6 46.5867C199.6 45.0181 198.214 43.9202 195.442 43.2927C192.669 42.6652 189.898 41.2535 187.125 39.0576C184.352 36.8616 178.635 31.6853 169.972 23.5286C161.309 15.372 156.977 10.3526 156.977 8.47031C156.977 6.58802 155.764 5.33316 153.339 4.70573C150.913 4.0783 149.18 4.23516 148.141 5.1763ZM41.5833 7.05859C42.2764 7.21546 42.9694 7.37231 43.6625 7.52917C43.4892 7.99974 43.316 8.47031 43.1427 8.94089C42.7962 9.88203 41.9298 10.1957 40.5438 9.88203C39.8507 9.72514 39.1577 9.56835 38.4646 9.41146C38.6379 8.94089 38.8111 8.47031 38.9844 7.99974C39.3309 7.05859 40.1973 6.74488 41.5833 7.05859ZM67.5729 7.05859C66.8798 7.37231 66.7066 8.784 67.0531 11.2938C67.3996 13.8035 68.7858 15.0583 71.2115 15.0583C73.6371 15.0583 80.3944 20.0777 91.4833 30.1167C102.572 40.1556 108.29 46.273 108.636 48.469C108.983 50.665 109.676 52.2336 110.716 53.1747C111.755 54.1159 113.141 54.4296 114.874 54.1159C116.607 53.8022 117.819 52.5473 118.512 50.3513C119.206 48.1553 118.859 46.5867 117.473 45.6456C116.087 44.7044 114.7 44.3907 113.315 44.7044C111.929 45.0181 105.518 39.9987 94.0823 29.6461C82.6469 19.2935 76.5827 12.8624 75.8896 10.3526C75.1965 7.84288 73.8104 6.58802 71.7312 6.58802C69.6521 6.58802 68.266 6.74488 67.5729 7.05859ZM96.1615 6.58802C96.6813 6.58802 97.201 6.58802 97.7208 6.58802C97.7208 7.21546 97.7208 7.84288 97.7208 8.47031C97.7208 9.09778 97.7208 9.72514 97.7208 10.3526C97.0277 10.1957 96.3348 10.0389 95.6417 9.88203C94.9486 9.72514 94.2556 9.56835 93.5625 9.41146C93.7358 8.94089 93.909 8.47031 94.0823 7.99974C94.4288 7.05859 95.1219 6.58802 96.1615 6.58802ZM122.671 10.3526C122.671 12.8624 123.017 14.4309 123.71 15.0583C124.404 15.6858 125.616 15.8426 127.349 15.5289C129.082 15.2152 135.666 20.2346 147.101 30.5872C158.536 40.9398 164.081 46.9004 163.734 48.469C163.388 50.0376 163.734 51.4493 164.774 52.7042C165.814 53.959 167.199 54.4296 168.932 54.1159C170.665 53.8022 171.877 52.5473 172.571 50.3513C173.264 48.1553 172.917 46.5867 171.531 45.6456C170.145 44.7044 168.932 44.3907 167.893 44.7044C166.853 45.0181 160.616 39.9987 149.18 29.6461C137.745 19.2935 131.681 12.8624 130.988 10.3526C130.294 7.84288 128.735 6.58802 126.309 6.58802C125.096 6.58802 123.884 6.58802 122.671 6.58802C122.671 7.84288 122.671 9.09778 122.671 10.3526ZM152.299 6.58802C152.819 6.58802 153.339 6.58802 153.858 6.58802C153.685 7.21546 153.512 7.84288 153.339 8.47031C153.165 9.09778 152.992 9.72514 152.819 10.3526C152.299 10.1957 151.779 10.0389 151.259 9.88203C150.74 9.72514 150.22 9.56835 149.7 9.41146C149.874 8.94089 150.046 8.47031 150.22 7.99974C150.566 7.05859 151.259 6.58802 152.299 6.58802ZM476.129 16.9406C478.902 17.5681 480.981 18.666 482.367 20.2346C483.752 21.8032 484.272 24.1561 483.926 27.2932C483.58 30.4304 482.193 32.7832 479.768 34.3518C477.342 35.9204 474.916 36.5478 472.491 36.2341C470.065 35.9204 467.986 34.9793 466.253 33.4107C464.52 31.8421 463.828 29.1755 464.174 25.4109C464.52 21.6464 465.907 19.1366 468.332 17.8818C470.758 16.6269 473.357 16.3132 476.129 16.9406ZM1069.73 21.1758C1066.96 23.3718 1065.92 26.1952 1066.61 29.6461C1067.31 33.097 1042.36 57.5668 991.763 103.055C941.169 148.544 915.873 177.249 915.873 189.17C915.873 201.092 914.487 208.15 911.715 210.346C908.942 212.542 907.73 215.052 908.076 217.875C908.422 220.699 909.462 222.894 911.195 224.463C912.928 226.032 915.699 226.816 919.511 226.816C923.324 226.816 926.095 225.718 927.828 223.522C929.561 221.326 930.081 218.503 929.388 215.052C928.694 211.601 927.308 209.248 925.229 207.993C923.15 206.739 921.764 206.268 921.071 206.582C920.725 206.739 920.377 206.895 920.031 207.052C920.031 201.405 920.031 195.758 920.031 190.111C920.031 178.818 944.808 150.583 994.361 105.408C1043.92 60.2333 1070.59 37.8027 1074.41 38.1164C1078.22 38.4301 1081.17 38.1164 1083.25 37.1753C1085.33 36.2341 1086.71 33.8813 1087.4 30.1167C1088.1 26.3521 1087.75 23.6855 1086.36 22.1169C1084.98 20.5483 1082.55 19.4504 1079.09 18.8229C1075.63 18.1955 1072.51 18.9798 1069.73 21.1758ZM982.406 48.9396C979.634 50.8219 978.074 53.0179 977.728 55.5276C977.382 58.0374 977.555 59.9197 978.248 61.1745C978.941 62.4293 956.417 83.762 910.675 125.172C864.933 166.583 823.004 187.445 784.885 187.759C746.767 188.072 673.13 237.953 563.974 337.401C454.818 436.849 399.546 487.043 398.16 487.984C396.775 488.925 394.176 489.239 390.364 488.925C386.551 488.612 383.952 488.768 382.567 489.396C381.181 490.024 379.968 490.965 378.928 492.219C377.889 493.474 377.542 495.827 377.889 499.278C378.235 502.729 379.622 505.238 382.047 506.807C384.472 508.376 387.245 509.003 390.364 508.689C393.482 508.376 395.908 507.12 397.641 504.925C399.374 502.729 399.893 500.062 399.2 496.925C398.507 493.788 453.432 442.181 563.974 342.107C674.516 242.032 749.02 191.68 787.484 191.053C825.949 190.425 867.186 169.877 911.195 129.408C955.203 88.9383 977.902 68.2331 979.287 67.2919C980.673 66.3508 983.272 66.0371 987.084 66.3508C990.896 66.6645 993.842 66.0371 995.921 64.4685C998 62.8999 999.213 60.7039 999.559 57.8805C999.906 55.057 999.733 53.0179 999.04 51.763C998.346 50.5082 996.094 49.2533 992.282 47.9984C988.47 46.7436 985.179 47.0573 982.406 48.9396ZM112.275 47.9984C112.968 47.9984 113.661 47.9984 114.354 47.9984C115.048 47.9984 115.74 47.9984 116.433 47.9984C116.433 48.469 116.433 48.9396 116.433 49.4102C116.433 49.8807 116.433 50.3513 116.433 50.8219C115.74 50.8219 115.048 50.8219 114.354 50.8219C113.661 50.8219 112.968 50.8219 112.275 50.8219C112.275 50.3513 112.275 49.8807 112.275 49.4102C112.275 48.9396 112.275 48.469 112.275 47.9984ZM166.333 47.9984C167.027 47.9984 167.719 47.9984 168.413 47.9984C169.106 47.9984 169.798 47.9984 170.492 47.9984C170.492 48.469 170.492 48.9396 170.492 49.4102C170.492 50.3513 169.972 50.9788 168.932 51.2924C168.413 51.4493 167.893 51.6061 167.373 51.763C167.199 51.1356 167.027 50.5082 166.853 49.8807C166.68 49.2533 166.507 48.6259 166.333 47.9984ZM990.203 50.8219C993.322 51.4493 995.055 53.1747 995.401 55.9982C995.747 58.8216 995.575 60.547 994.881 61.1745C994.188 61.8019 992.456 62.2725 989.683 62.5862C986.911 62.8999 985.005 62.7431 983.966 62.1156C982.926 61.4882 982.233 60.0765 981.886 57.8805C981.54 55.6845 982.06 53.8022 983.446 52.2336C984.832 50.665 987.084 50.1944 990.203 50.8219ZM363.854 61.1745C361.775 62.4293 360.562 63.841 360.216 65.4096C359.869 66.9782 311.875 67.7625 216.233 67.7625C120.592 67.7625 66.36 73.7231 53.5385 85.6443C40.717 97.5658 33.6132 103.213 32.2271 102.585C30.841 101.957 28.5885 101.957 25.4698 102.585C22.351 103.213 19.9254 104.624 18.1927 106.82C16.46 109.016 15.5938 110.898 15.5938 112.467C15.5938 114.036 16.1135 115.761 17.1531 117.643C18.1927 119.526 19.7521 120.937 21.8312 121.878C23.9104 122.82 26.5094 122.977 29.6281 122.349C32.7469 121.721 34.9993 120.624 36.3854 119.055C37.7715 117.486 38.4646 114.506 38.4646 110.114C38.4646 105.722 44.5288 98.1926 56.6573 87.5266C68.7858 76.8603 122.325 71.5271 217.273 71.5271C264.748 71.5271 312.221 71.5271 359.696 71.5271C359.696 71.9977 359.696 72.4682 359.696 72.9388C359.696 73.88 360.562 75.1348 362.295 76.7034C364.028 78.272 366.28 79.2131 369.052 79.5268C371.825 79.8405 374.424 79.2132 376.849 77.6445C379.274 76.0759 380.661 73.5663 381.007 70.1154C381.353 66.6645 380.314 63.9979 377.889 62.1156C375.463 60.2333 373.037 59.2922 370.611 59.2922C368.186 59.2922 365.933 59.9197 363.854 61.1745ZM373.21 63.9979C375.983 65.2528 377.369 67.135 377.369 69.6448C377.369 72.1545 376.503 73.88 374.77 74.8211C373.037 75.7622 370.785 75.7622 368.013 74.8211C365.24 73.88 363.854 71.9977 363.854 69.1742C363.854 66.3508 364.72 64.4685 366.453 63.5273C368.186 62.5862 370.438 62.7431 373.21 63.9979ZM800.999 65.4096C803.424 65.7233 805.677 66.9782 807.756 69.1742C809.835 71.3702 810.701 73.7231 810.355 76.2328C810.009 78.7426 808.45 80.9385 805.677 82.8208C802.904 84.7031 800.133 85.3306 797.36 84.7031C794.588 84.0757 792.509 82.6639 791.123 80.468C789.737 78.272 789.217 75.9191 789.564 73.4094C789.91 70.8996 791.297 68.8605 793.722 67.2919C796.147 65.7233 798.574 65.096 800.999 65.4096ZM516.673 111.055C518.752 111.055 521.005 111.996 523.43 113.879C525.856 115.761 527.069 118.114 527.069 120.937C527.069 123.761 525.683 126.114 522.91 127.996C520.138 129.878 517.193 130.506 514.074 129.878C510.955 129.25 508.702 127.996 507.317 126.114C505.931 124.231 505.411 122.036 505.757 119.526C506.103 117.015 507.49 114.977 509.916 113.408C512.341 111.839 514.594 111.055 516.673 111.055ZM0 149.642C0 152.152 1.55937 154.976 4.67812 158.113C7.79688 161.249 39.1577 162.818 98.7604 162.818C158.363 162.818 194.576 168.622 207.397 180.229C220.218 191.837 226.109 198.425 225.07 199.993C224.03 201.562 223.51 203.915 223.51 207.052C223.51 210.189 224.55 213.012 226.629 215.522C228.708 218.032 230.788 219.758 232.867 220.699C234.946 221.64 237.891 221.953 241.703 221.64C245.515 221.326 248.98 219.444 252.099 215.993C255.218 212.542 256.777 209.405 256.777 206.582C256.777 203.758 255.391 200.777 252.619 197.641C249.846 194.504 246.208 192.778 241.703 192.464C237.199 192.151 234.08 192.307 232.347 192.935C230.614 193.563 222.817 187.759 208.956 175.524C195.095 163.289 159.056 157.329 100.84 157.642C42.6229 157.955 11.2621 156.073 6.75729 151.995C4.50486 149.956 2.25243 147.917 0 145.878C0 147.132 0 148.388 0 149.642ZM415.833 184.935C417.913 185.249 419.472 186.19 420.511 187.759C421.551 189.327 421.377 191.366 419.992 193.876C418.606 196.386 416.873 197.641 414.794 197.641C412.715 197.641 410.982 197.17 409.596 196.229C408.21 195.288 407.343 194.033 406.997 192.464C406.651 190.895 407.517 189.17 409.596 187.288C411.675 185.406 413.754 184.622 415.833 184.935ZM654.938 204.229C657.017 204.229 659.269 205.17 661.695 207.052C664.12 208.934 665.333 211.287 665.333 214.111C665.333 216.934 664.294 219.287 662.215 221.169C660.135 223.052 657.363 223.836 653.898 223.522C650.433 223.209 647.834 221.953 646.101 219.758C644.368 217.562 643.848 215.052 644.542 212.228C645.235 209.405 646.621 207.365 648.7 206.111C650.779 204.856 652.858 204.229 654.938 204.229ZM496.401 211.758C493.282 213.64 491.377 215.68 490.683 217.875C489.99 220.071 465.214 221.169 416.353 221.169C367.493 221.169 322.444 239.992 281.207 277.638C239.97 315.284 209.822 334.107 190.764 334.107C171.705 334.107 162.001 333.166 161.655 331.283C161.309 329.401 160.442 327.832 159.056 326.578C157.67 325.323 155.938 324.225 153.858 323.284C151.779 322.342 149.18 321.872 146.061 321.872C142.943 321.872 139.824 322.813 136.705 324.695C133.586 326.578 131.507 328.773 130.468 331.283C129.428 333.793 129.082 336.302 129.428 338.813C129.774 341.323 131.334 343.989 134.106 346.812C136.879 349.636 140.344 351.205 144.502 351.518C148.66 351.831 152.125 351.205 154.898 349.636C157.67 348.067 159.576 346.028 160.616 343.518C161.655 341.008 172.051 339.754 191.803 339.754C211.555 339.754 241.877 320.931 282.767 283.285C323.657 245.639 368.359 226.816 416.873 226.816C465.387 226.816 489.817 227.757 490.164 229.64C490.51 231.522 491.377 233.247 492.762 234.816C494.148 236.385 497.441 237.482 502.639 238.11C507.836 238.738 512.168 237.482 515.633 234.345C519.098 231.208 520.831 227.914 520.831 224.463C520.831 221.012 519.618 217.875 517.193 215.052C514.767 212.228 511.475 210.503 507.317 209.876C503.158 209.248 499.52 209.876 496.401 211.758ZM918.992 209.876C920.377 209.876 921.937 210.503 923.67 211.758C925.403 213.012 926.269 214.581 926.269 216.464C926.269 218.346 925.749 219.915 924.709 221.169C923.67 222.424 921.764 223.052 918.992 223.052C916.219 223.052 914.314 222.268 913.274 220.699C912.234 219.13 912.061 217.248 912.754 215.052C913.448 212.856 914.313 211.444 915.353 210.817C916.393 210.189 917.606 209.876 918.992 209.876ZM507.317 214.581C510.089 215.209 512.168 216.621 513.554 218.816C514.94 221.012 515.287 223.522 514.594 226.346C513.9 229.169 512.515 231.208 510.435 232.463C508.356 233.718 505.757 234.032 502.639 233.404C499.52 232.776 497.267 231.365 495.881 229.169C494.495 226.973 493.976 224.777 494.322 222.581C494.668 220.385 496.227 218.346 499 216.464C501.773 214.581 504.544 213.954 507.317 214.581ZM363.334 259.756C360.909 261.639 359.522 263.678 359.176 265.874C358.83 268.069 359.002 269.952 359.696 271.521C360.389 273.089 361.949 274.501 364.374 275.756C366.799 277.01 368.013 285.951 368.013 302.578C368.013 319.206 334.746 357.635 268.212 417.869C201.679 478.102 166.68 507.905 163.215 507.278C159.75 506.65 156.803 507.12 154.378 508.689C151.953 510.258 150.566 512.297 150.22 514.807C149.874 517.317 150.046 519.513 150.74 521.395C151.433 523.277 152.819 524.689 154.898 525.63C156.977 526.571 159.75 526.728 163.215 526.101C166.68 525.473 169.106 524.375 170.492 522.807C171.877 521.238 172.397 518.729 172.051 515.277C171.705 511.826 172.917 508.689 175.69 505.866C178.462 503.042 211.901 473.083 276.009 415.986C340.117 358.89 372.171 321.558 372.171 303.99C372.171 286.422 373.037 277.481 374.77 277.167C376.503 276.854 377.889 276.069 378.928 274.815C379.968 273.56 380.661 271.363 381.007 268.227C381.353 265.09 380.661 262.58 378.928 260.697C377.195 258.815 374.77 257.717 371.651 257.403C368.532 257.09 365.76 257.874 363.334 259.756ZM1740.78 528.924C1571.33 682.644 1472.91 759.662 1445.54 759.975C1418.17 760.289 1403.61 758.877 1401.88 755.74C1400.14 752.603 1397.9 750.407 1395.12 749.152C1392.35 747.898 1389.58 747.27 1386.8 747.27C1384.03 747.27 1381.43 747.898 1379.01 749.152C1376.59 750.407 1374.67 751.976 1373.29 753.858C1371.91 755.74 1371.21 758.406 1371.21 761.858C1371.21 765.309 1372.07 768.288 1373.81 770.798C1375.55 773.308 1377.27 775.034 1379.01 775.975C1380.74 776.916 1383.86 777.229 1388.36 776.916C1392.86 776.603 1396.16 775.661 1398.24 774.093C1400.32 772.524 1401.88 770.641 1402.92 768.446C1403.96 766.25 1418.33 765.152 1446.06 765.152C1473.79 765.152 1533.91 722.957 1626.43 638.568C1718.95 554.178 1803.68 477.632 1880.61 408.928C1957.54 340.224 1995.82 304.618 1995.48 302.108C1995.3 300.853 1995.14 299.598 1994.96 298.343C1910.23 375.204 1825.51 452.063 1740.78 528.924ZM772.41 339.754C768.945 341.636 766.693 343.832 765.653 346.342C764.614 348.852 738.45 350.106 687.165 350.106C635.879 350.106 594.815 364.066 563.974 391.987C533.133 419.908 516.673 433.398 514.594 432.457C512.515 431.515 510.089 431.045 507.317 431.045C504.544 431.045 502.119 431.515 500.04 432.457C497.96 433.398 495.881 435.437 493.802 438.574C491.723 441.711 490.857 444.691 491.203 447.515C491.549 450.338 493.282 453.319 496.401 456.456C499.52 459.593 503.158 461.161 507.317 461.161C511.475 461.161 514.594 460.534 516.673 459.279C518.752 458.025 520.485 456.142 521.871 453.632C523.257 451.122 523.95 448.613 523.95 446.103C523.95 443.593 523.43 441.397 522.391 439.515C521.351 437.633 536.079 423.045 566.573 395.752C597.067 368.459 637.784 354.812 688.724 354.812C739.664 354.812 765.307 355.753 765.653 357.635C765.999 359.518 767.039 361.243 768.772 362.812C770.505 364.381 773.624 365.478 778.128 366.106C782.633 366.733 786.099 366.576 788.524 365.635C790.949 364.694 793.029 363.125 794.761 360.929C796.494 358.734 797.36 355.91 797.36 352.459C797.36 349.008 795.801 345.714 792.682 342.577C789.564 339.44 786.271 337.714 782.806 337.401C779.341 337.087 775.875 337.871 772.41 339.754ZM377.369 348.695C376.675 350.89 376.849 352.459 377.889 353.4C378.928 354.341 380.141 354.812 381.527 354.812C382.913 354.812 384.126 354.184 385.166 352.93C386.205 351.675 394.868 351.047 411.155 351.047C427.442 351.047 436.279 351.675 437.665 352.93C439.05 354.184 440.957 354.499 443.382 353.871C445.808 353.243 446.675 351.675 445.981 349.165C445.288 346.655 443.902 345.401 441.823 345.401C439.744 345.401 438.184 346.028 437.145 347.283C436.105 348.537 427.615 349.165 411.675 349.165C395.735 349.165 387.245 348.537 386.205 347.283C385.166 346.028 383.606 345.401 381.527 345.401C379.448 345.401 378.062 346.499 377.369 348.695ZM439.744 348.224C440.437 348.224 441.13 348.224 441.823 348.224C442.516 348.224 443.209 348.224 443.902 348.224C443.902 348.852 443.902 349.479 443.902 350.106C443.902 350.734 443.902 351.361 443.902 351.989C443.209 351.831 442.516 351.675 441.823 351.518C440.437 351.205 439.744 350.577 439.744 349.636C439.744 349.165 439.744 348.695 439.744 348.224ZM353.978 364.694C352.939 365.635 352.939 367.204 353.978 369.4C355.018 371.595 356.231 372.694 357.617 372.694C359.002 372.694 360.389 372.066 361.775 370.811C363.161 369.557 372.171 368.929 388.804 368.929C405.438 368.929 413.928 369.4 414.274 370.341C414.62 371.282 415.66 371.91 417.393 372.223C419.126 372.537 420.685 372.066 422.071 370.811C423.457 369.557 423.63 367.988 422.591 366.106C421.551 364.223 420.165 363.282 418.432 363.282C416.699 363.282 415.487 363.753 414.794 364.694C414.1 365.635 405.438 366.106 388.804 366.106C372.171 366.106 363.508 365.635 362.815 364.694C362.121 363.753 360.735 363.282 358.656 363.282C356.577 363.282 355.018 363.753 353.978 364.694ZM358.656 365.635C360.042 365.949 360.735 366.576 360.735 367.517C360.735 368.459 360.216 369.086 359.176 369.4C358.136 369.713 357.27 369.557 356.577 368.929C355.884 368.301 355.711 367.517 356.057 366.576C356.403 365.635 357.27 365.322 358.656 365.635ZM338.384 381.635C337.345 382.576 337.345 384.301 338.384 386.811C339.424 389.321 340.81 390.576 342.543 390.576C344.276 390.576 345.488 389.948 346.181 388.693C346.875 387.439 355.711 386.811 372.691 386.811C389.67 386.811 399.2 387.439 401.279 388.693C403.358 389.948 405.091 389.948 406.477 388.693C407.863 387.439 408.21 385.713 407.517 383.517C406.823 381.321 405.438 380.223 403.358 380.223C401.279 380.223 399.893 380.851 399.2 382.105C398.507 383.36 389.844 383.988 373.21 383.988C356.577 383.988 347.741 383.36 346.701 382.105C345.661 380.851 344.276 380.223 342.543 380.223C340.81 380.223 339.424 380.694 338.384 381.635ZM402.319 383.046C402.839 383.204 403.358 383.36 403.878 383.517C404.918 383.83 405.438 384.458 405.438 385.399C405.438 385.87 405.438 386.34 405.438 386.811C404.744 386.811 404.052 386.811 403.358 386.811C402.665 386.811 401.973 386.811 401.279 386.811C401.453 386.183 401.625 385.556 401.799 384.929C401.973 384.301 402.145 383.674 402.319 383.046ZM315.514 399.987C314.474 401.242 314.474 402.653 315.514 404.222C316.553 405.791 318.112 406.575 320.192 406.575C322.271 406.575 323.484 406.104 323.83 405.163C324.176 404.222 332.667 403.752 349.3 403.752C365.933 403.752 374.596 404.379 375.29 405.634C375.983 406.888 377.369 407.516 379.448 407.516C381.527 407.516 382.913 407.046 383.606 406.104C384.3 405.163 384.646 404.065 384.646 402.81C384.646 401.556 384.126 400.458 383.086 399.516C382.047 398.575 380.487 398.262 378.408 398.575C376.329 398.889 375.116 399.516 374.77 400.458C374.424 401.399 365.933 401.869 349.3 401.869C332.667 401.869 324.176 401.242 323.83 399.987C323.484 398.732 322.271 398.105 320.192 398.105C318.112 398.105 316.553 398.732 315.514 399.987ZM320.192 399.987C320.538 399.987 320.885 399.987 321.231 399.987C321.231 400.615 321.231 401.242 321.231 401.869C321.231 402.497 321.231 403.124 321.231 403.752C320.711 403.752 320.192 403.752 319.672 403.752C319.152 403.752 318.632 403.752 318.112 403.752C318.286 403.124 318.459 402.497 318.632 401.869C318.978 400.615 319.498 399.987 320.192 399.987ZM299.4 416.928C298.707 417.555 298.36 418.81 298.36 420.692C298.36 422.575 298.707 423.673 299.4 423.986C300.093 424.3 301.479 424.457 303.558 424.457C305.637 424.457 306.851 423.986 307.197 423.045C307.543 422.104 316.207 421.633 333.186 421.633C350.166 421.633 359.002 422.104 359.696 423.045C360.389 423.986 361.601 424.457 363.334 424.457C365.067 424.457 366.453 423.986 367.493 423.045C368.532 422.104 368.706 420.692 368.013 418.81C367.319 416.928 365.933 415.986 363.854 415.986C361.775 415.986 360.389 416.457 359.696 417.398C359.002 418.339 350.166 418.81 333.186 418.81C316.207 418.81 307.543 418.339 307.197 417.398C306.851 416.457 305.637 415.986 303.558 415.986C301.479 415.986 300.093 416.3 299.4 416.928ZM361.775 418.81C362.468 418.81 363.161 418.81 363.854 418.81C364.548 418.81 365.24 418.81 365.933 418.81C365.933 419.281 365.933 419.751 365.933 420.222C365.933 421.163 365.414 421.791 364.374 422.104C363.854 422.261 363.334 422.417 362.815 422.574C362.641 421.947 362.468 421.32 362.295 420.692C362.121 420.064 361.949 419.438 361.775 418.81ZM508.876 436.221C511.301 436.535 513.381 437.633 515.114 439.515C516.846 441.397 517.539 443.907 517.193 447.044C516.846 450.181 515.46 452.534 513.034 454.103C510.609 455.672 508.183 456.299 505.757 455.985C503.332 455.672 501.253 454.573 499.52 452.691C497.787 450.809 497.094 448.299 497.441 445.162C497.787 442.025 499.174 439.672 501.599 438.103C504.024 436.535 506.451 435.908 508.876 436.221ZM324.87 453.162C323.137 454.103 321.925 455.672 321.231 457.867C320.538 460.063 309.102 461.161 286.925 461.161C264.748 461.161 236.159 477.318 201.159 509.63C166.16 541.943 147.967 557.786 146.581 557.158C145.195 556.531 142.769 556.531 139.304 557.158C135.839 557.786 133.413 558.883 132.027 560.452C130.641 562.021 130.122 564.374 130.468 567.511C130.814 570.648 132.027 573.001 134.106 574.57C136.185 576.138 138.438 576.922 140.864 576.922C143.289 576.922 145.542 576.452 147.621 575.511C149.7 574.57 151.086 571.433 151.779 566.099C152.473 560.766 169.798 542.728 203.758 511.983C237.718 481.239 265.614 465.71 287.445 465.397C309.276 465.083 320.885 466.024 322.271 468.22C323.657 470.416 326.256 471.671 330.068 471.985C333.88 472.298 336.825 471.514 338.904 469.632C340.983 467.75 342.023 465.239 342.023 462.103C342.023 458.966 340.81 456.456 338.384 454.573C335.959 452.691 333.533 451.75 331.107 451.75C328.682 451.75 326.603 452.221 324.87 453.162ZM332.147 455.985C334.572 456.299 336.305 457.24 337.345 458.809C338.384 460.378 338.211 462.416 336.825 464.926C335.439 467.436 333.706 468.691 331.627 468.691C329.548 468.691 327.815 468.22 326.429 467.279C325.043 466.338 324.176 465.083 323.83 463.514C323.484 461.945 324.176 460.22 325.909 458.338C327.642 456.456 329.722 455.672 332.147 455.985ZM1941.42 506.336C1906.42 538.335 1888.92 565.158 1888.92 586.804C1888.92 608.451 1888.23 619.431 1886.84 619.745C1885.46 620.058 1883.73 621.47 1881.65 623.98C1879.57 626.49 1878.7 628.685 1879.05 630.568C1879.39 632.45 1880.26 634.175 1881.65 635.744C1883.03 637.313 1885.8 638.254 1889.96 638.568C1894.12 638.881 1897.24 637.784 1899.32 635.273C1901.4 632.763 1902.09 630.097 1901.4 627.274C1900.7 624.45 1899.14 622.411 1896.72 621.156C1894.3 619.902 1893.08 608.608 1893.08 587.275C1893.08 565.942 1910.23 539.904 1944.54 509.16C1978.85 478.416 1996 462.26 1996 460.691C1996 459.907 1996 459.122 1996 458.338C1995.66 458.338 1995.3 458.338 1994.96 458.338C1994.26 458.338 1976.42 474.338 1941.42 506.336ZM1839.54 501.16C1837.12 503.356 1835.9 505.553 1835.9 507.748C1835.9 509.944 1836.25 511.356 1836.94 511.983C1837.64 512.611 1837.64 513.552 1836.94 514.807C1836.25 516.061 1795.7 552.766 1715.31 624.921C1634.92 697.076 1594.72 753.387 1594.72 793.857C1594.72 834.326 1564.05 882.324 1502.72 937.852C1441.38 993.379 1394.08 1021.14 1360.81 1021.14C1327.55 1021.14 1310.05 1019.89 1308.32 1017.38C1306.58 1014.87 1304.16 1013.45 1301.04 1013.14C1297.92 1012.83 1295.5 1013.14 1293.76 1014.08C1292.03 1015.03 1290.64 1016.6 1289.6 1018.79C1288.56 1020.98 1288.22 1023.03 1288.56 1024.91C1288.91 1026.79 1289.78 1028.51 1291.16 1030.08C1292.55 1031.66 1294.1 1032.75 1295.84 1033.38C1297.58 1034.01 1299.48 1034.16 1301.56 1033.85C1303.64 1033.54 1305.72 1031.97 1307.8 1029.14C1309.88 1026.32 1327.89 1024.91 1361.85 1024.91C1395.82 1024.91 1443.12 997.455 1503.76 942.558C1564.4 887.658 1595.24 859.58 1596.28 858.325C1597.32 857.07 1597.84 836.365 1597.84 796.209C1597.84 756.054 1638.21 699.429 1718.95 626.333C1799.7 553.237 1841.45 517.003 1844.22 517.63C1847 518.258 1849.76 517.944 1852.54 516.689C1855.31 515.435 1857.04 514.336 1857.74 513.395C1858.43 512.454 1858.6 510.258 1858.26 506.807C1857.91 503.356 1856.87 501.003 1855.14 499.748C1853.4 498.494 1850.98 497.866 1847.86 497.866C1844.74 497.866 1841.96 498.965 1839.54 501.16ZM1981.97 503.042C1980.93 503.984 1980.41 505.395 1980.41 507.278C1980.41 509.16 1972.27 517.317 1955.98 531.747C1939.69 546.178 1931.55 569.55 1931.55 601.863C1931.55 634.175 1930.85 650.802 1929.47 651.744C1928.08 652.685 1927.39 653.939 1927.39 655.508C1927.39 657.077 1928.08 658.332 1929.47 659.273C1930.85 660.214 1932.59 660.057 1934.66 658.802C1936.74 657.548 1937.78 656.292 1937.78 655.038C1937.78 653.783 1937.26 652.842 1936.22 652.214C1935.18 651.586 1934.66 634.96 1934.66 602.333C1934.66 569.707 1942.28 546.492 1957.54 532.689C1972.79 518.885 1982.14 511.67 1985.6 511.042C1989.07 510.414 1990.8 509.003 1990.8 506.807C1990.8 504.611 1989.59 503.2 1987.16 502.572C1984.74 501.944 1983.01 502.101 1981.97 503.042ZM254.698 510.572C251.233 512.767 249.154 515.748 248.46 519.513C247.767 523.277 247.941 526.258 248.98 528.453C250.02 530.649 237.545 543.355 211.555 566.57C185.566 589.785 172.571 605.157 172.571 612.686C172.571 620.215 171.531 624.137 169.452 624.45C167.373 624.764 165.12 626.646 162.695 630.097C160.269 633.548 159.23 636.842 159.576 639.979C159.922 643.116 160.962 645.783 162.695 647.979C164.428 650.175 166.853 651.744 169.972 652.685C173.091 653.626 175.69 653.939 177.769 653.626C179.848 653.312 181.753 652.842 183.486 652.214C185.219 651.586 187.125 650.018 189.204 647.508C191.283 644.998 192.497 642.803 192.843 640.92C193.189 639.038 192.843 636.685 191.803 633.862C190.764 631.038 189.378 628.843 187.645 627.274C185.912 625.705 184.006 624.764 181.927 624.45C179.848 624.137 178.808 620.372 178.808 613.157C178.808 605.941 190.764 591.51 214.674 569.864C238.584 548.217 251.059 537.081 252.099 536.453C253.139 535.825 256.257 535.825 261.455 536.453C266.653 537.081 270.638 536.61 273.41 535.041C276.183 533.473 278.089 531.747 279.128 529.865C280.168 527.983 280.341 524.689 279.648 519.983C278.955 515.277 277.395 512.141 274.97 510.572C272.544 509.003 269.426 508.062 265.614 507.748C261.801 507.435 258.163 508.376 254.698 510.572ZM161.655 510.101C163.388 510.101 164.948 510.729 166.333 511.983C167.719 513.238 168.413 514.807 168.413 516.689C168.413 518.571 167.893 520.14 166.853 521.395C165.814 522.649 164.081 523.277 161.655 523.277C159.23 523.277 157.323 522.649 155.938 521.395C154.552 520.14 154.032 518.258 154.378 515.748C154.724 513.238 155.591 511.67 156.977 511.042C158.363 510.414 159.922 510.101 161.655 510.101ZM266.653 512.924C269.772 513.552 272.025 514.964 273.41 517.16C274.796 519.355 275.143 521.865 274.45 524.689C273.757 527.512 272.197 529.552 269.772 530.806C267.347 532.061 264.748 532.375 261.975 531.747C259.202 531.12 257.123 530.022 255.738 528.453C254.352 526.885 253.832 524.532 254.178 521.395C254.524 518.258 255.911 515.905 258.336 514.336C260.762 512.767 263.534 512.297 266.653 512.924ZM1819.79 569.393C1818.05 570.021 1817.19 571.276 1817.19 573.158C1817.19 575.04 1815.46 577.706 1811.99 581.158C1808.53 584.609 1778.38 611.902 1721.55 663.037C1664.72 714.173 1635.09 739.741 1632.67 739.741C1630.24 739.741 1628.85 740.995 1628.51 743.505C1628.16 746.015 1628.33 747.583 1629.03 748.211C1629.72 748.839 1631.28 748.995 1633.71 748.682C1636.13 748.368 1637.52 746.956 1637.86 744.446C1638.21 741.936 1664.2 717.31 1715.83 670.566C1767.47 623.823 1797.62 596.687 1806.28 589.157C1814.94 581.628 1820.31 577.864 1822.39 577.864C1824.47 577.864 1825.69 576.609 1826.03 574.099C1826.37 571.589 1825.85 570.021 1824.47 569.393C1823.09 568.766 1821.53 568.766 1819.79 569.393ZM1821.35 571.276C1821.69 571.903 1822.05 572.53 1822.39 573.158C1822.73 573.786 1823.09 574.412 1823.43 575.04C1822.73 574.883 1822.05 574.727 1821.35 574.57C1820.65 574.412 1819.97 574.256 1819.27 574.099C1819.61 573.628 1819.97 573.158 1820.31 572.687C1820.65 572.217 1821.01 571.746 1821.35 571.276ZM124.23 604.216C127.349 604.843 129.602 606.098 130.988 607.98C132.373 609.862 132.893 612.058 132.547 614.568C132.201 617.078 130.987 619.117 128.908 620.686C126.829 622.255 123.884 622.725 120.072 622.097C116.26 621.47 113.834 620.372 112.795 618.803C111.755 617.234 111.409 615.039 111.755 612.215C112.101 609.392 113.488 607.196 115.914 605.627C118.339 604.058 121.111 603.588 124.23 604.216ZM1842.66 611.745C1839.54 614.255 1838.33 617.078 1839.02 620.215C1839.72 623.352 1832.96 631.352 1818.75 644.214C1804.54 657.077 1792.42 663.508 1782.37 663.508C1772.31 663.508 1745.28 683.742 1701.28 724.212C1657.27 764.681 1633.36 784.759 1629.55 784.445C1625.73 784.132 1622.79 784.445 1620.71 785.386C1618.63 786.327 1617.07 787.426 1616.03 788.68C1614.99 789.935 1614.82 792.445 1615.51 796.209C1616.21 799.974 1617.41 802.327 1619.15 803.268C1620.89 804.209 1623.83 804.366 1627.99 803.739C1632.15 803.111 1634.74 802.013 1635.78 800.445C1636.82 798.876 1637.17 796.367 1636.82 792.915C1636.48 789.464 1658.48 767.662 1702.84 727.506C1747.2 687.35 1774.23 667.272 1783.92 667.272C1793.62 667.272 1805.76 660.527 1820.31 647.038C1834.86 633.548 1844.04 627.117 1847.86 627.744C1851.67 628.372 1854.44 628.215 1856.18 627.274C1857.91 626.333 1859.12 625.391 1859.81 624.45C1860.51 623.509 1860.68 621.313 1860.33 617.862C1859.99 614.411 1858.95 612.058 1857.22 610.804C1855.48 609.549 1853.4 608.764 1850.98 608.451C1848.56 608.137 1845.78 609.235 1842.66 611.745ZM678.328 620.215C676.595 620.843 674.69 622.255 672.61 624.45C670.531 626.646 669.318 629.313 668.972 632.45C668.626 635.587 669.146 638.41 670.531 640.92C671.917 643.43 673.996 645.469 676.769 647.038C679.541 648.607 682.486 649.391 685.605 649.391C688.724 649.391 691.149 648.92 692.882 647.979C694.615 647.038 696.521 647.351 698.6 648.92C700.679 650.489 718.526 666.802 752.139 697.86C785.751 728.917 824.909 744.446 869.611 744.446C914.314 744.446 937.011 745.545 937.704 747.74C938.398 749.936 940.13 751.976 942.902 753.858C945.675 755.74 949.14 756.681 953.298 756.681C957.456 756.681 960.921 755.74 963.694 753.858C966.466 751.976 968.026 748.368 968.372 743.035C968.718 737.701 968.026 734.094 966.293 732.211C964.56 730.329 962.308 728.918 959.535 727.976C956.763 727.035 953.298 727.035 949.14 727.976C944.981 728.918 941.862 731.113 939.783 734.564C937.704 738.016 914.833 739.741 871.171 739.741C827.508 739.741 788.004 723.741 752.658 691.742C717.312 659.743 699.986 642.96 700.679 641.391C701.373 639.822 701.545 636.999 701.199 632.921C700.853 628.843 699.466 625.705 697.041 623.509C694.615 621.313 691.323 620.058 687.165 619.745C683.006 619.431 680.061 619.587 678.328 620.215ZM476.129 632.921C474.743 633.862 473.53 635.431 472.491 637.626C471.451 639.822 471.451 642.332 472.491 645.156C473.53 647.979 469.718 653.155 461.055 660.684C452.392 668.214 412.541 671.978 341.503 671.978C270.465 671.978 234.772 671.194 234.426 669.625C234.08 668.056 233.213 666.645 231.827 665.39C230.441 664.136 228.535 663.351 226.109 663.037C223.684 662.724 221.258 663.037 218.832 663.978C216.407 664.92 214.674 667.115 213.634 670.566C212.595 674.018 212.941 676.841 214.674 679.037C216.407 681.232 218.139 682.644 219.872 683.272C221.605 683.9 223.857 683.9 226.629 683.272C229.402 682.644 231.481 681.232 232.867 679.037C234.252 676.841 270.811 675.743 342.543 675.743C414.274 675.743 454.472 671.665 463.134 663.508C471.797 655.351 478.208 651.273 482.367 651.273C486.525 651.273 489.124 650.96 490.164 650.332C491.203 649.704 492.069 648.763 492.762 647.508C493.456 646.254 493.628 643.901 493.282 640.45C492.936 636.999 491.897 634.646 490.164 633.391C488.431 632.137 486.005 631.509 482.886 631.509C479.768 631.509 477.515 631.979 476.129 632.921ZM485.485 635.273C487.565 635.901 488.95 637.469 489.644 639.979C490.337 642.489 490.337 644.214 489.644 645.156C488.95 646.097 487.391 646.881 484.966 647.508C482.54 648.136 480.461 647.822 478.728 646.567C476.995 645.313 476.129 643.587 476.129 641.391C476.129 639.195 477.169 637.469 479.248 636.215C481.327 634.96 483.406 634.646 485.485 635.273ZM1931.55 653.155C1932.07 653.312 1932.59 653.469 1933.11 653.626C1934.14 653.939 1934.49 654.724 1934.14 655.979C1933.97 656.606 1933.8 657.233 1933.62 657.861C1933.11 657.704 1932.59 657.548 1932.07 657.39C1931.03 657.077 1930.68 656.292 1931.03 655.038C1931.2 654.41 1931.37 653.783 1931.55 653.155ZM0 688.448C0 688.919 0 689.389 0 689.86C22.8708 689.86 45.7417 689.86 68.6125 689.86C114.354 689.86 149.007 700.37 172.571 721.388C196.135 742.407 207.917 754.956 207.917 759.034C207.917 763.112 208.783 766.093 210.516 767.975C212.249 769.857 214.848 770.956 218.312 771.269C221.777 771.582 224.724 770.641 227.149 768.446C229.574 766.25 230.787 763.897 230.787 761.387C230.787 758.877 229.922 756.681 228.189 754.799C226.456 752.917 222.991 751.818 217.793 751.505C212.595 751.192 198.387 740.368 175.17 719.035C151.953 697.703 116.953 687.036 70.1719 687.036C46.7812 687.036 23.3906 687.036 0 687.036C0 687.507 0 687.978 0 688.448ZM300.44 703.036C298.36 704.918 297.321 707.271 297.321 710.095C297.321 712.918 298.534 715.271 300.959 717.153C303.385 719.035 306.331 719.819 309.796 719.506C313.261 719.193 315.86 717.937 317.593 715.741C319.326 713.546 352.765 712.447 417.913 712.447C483.06 712.447 528.802 724.369 555.138 748.211C581.473 772.053 673.476 783.975 831.147 783.975C988.817 783.975 1068 784.916 1068.69 786.798C1069.39 788.68 1070.43 789.935 1071.81 790.563C1073.19 791.19 1075.45 791.504 1078.57 791.504C1081.69 791.504 1084.11 790.876 1085.84 789.621C1087.58 788.367 1088.62 787.111 1088.96 785.857C1089.31 784.602 1089.14 782.406 1088.44 779.269C1087.75 776.132 1086.19 773.935 1083.77 772.681C1081.34 771.426 1078.74 771.112 1075.97 771.74C1073.19 772.367 1071.11 773.779 1069.73 775.975C1068.35 778.17 988.817 779.269 831.147 779.269C673.476 779.269 581.82 767.504 556.177 743.976C530.534 720.447 484.792 708.683 418.952 708.683C353.112 708.683 319.498 707.428 318.112 704.918C316.727 702.408 313.954 700.997 309.796 700.683C305.638 700.37 302.519 701.154 300.44 703.036ZM309.796 703.507C311.875 703.82 313.434 704.605 314.474 705.859C315.514 707.114 316.033 708.526 316.033 710.095C316.033 711.664 315.34 713.075 313.954 714.33C312.568 715.584 310.835 716.212 308.756 716.212C306.677 716.212 304.944 715.741 303.558 714.8C302.173 713.859 301.479 712.29 301.479 710.095C301.479 707.899 302.345 706.173 304.078 704.918C305.811 703.664 307.717 703.193 309.796 703.507ZM1985.6 713.859C1979.37 719.819 1944.02 722.8 1879.57 722.8C1815.11 722.8 1724.33 775.661 1607.2 881.383C1490.07 987.102 1431.51 1054.24 1431.51 1082.79C1431.51 1111.33 1409.16 1145.85 1364.45 1186.31C1342.1 1206.55 1319.75 1226.78 1297.4 1247.02C1298.78 1247.02 1300.18 1247.02 1301.56 1247.02C1304.33 1247.02 1327.72 1227.09 1371.73 1187.26C1415.74 1147.42 1437.74 1113.22 1437.74 1084.67C1437.74 1056.13 1495.44 989.615 1610.83 885.148C1726.23 780.681 1816.33 728.447 1881.13 728.447C1945.92 728.447 1981.27 725.781 1987.16 720.447C1993.06 715.114 1995.82 711.193 1995.48 708.683C1995.3 707.428 1995.14 706.173 1994.96 704.918C1991.84 707.899 1988.72 710.879 1985.6 713.859ZM0 727.035C0 727.819 0 728.604 0 729.388C20.4452 729.388 40.8902 729.388 61.3354 729.388C102.226 729.388 139.304 744.604 172.571 775.034C205.837 805.464 258.856 820.679 331.627 820.679C404.398 820.679 440.957 821.62 441.303 823.503C441.649 825.385 443.556 827.424 447.021 829.62C450.486 831.816 454.472 832.601 458.976 831.973C463.481 831.345 466.947 829.62 469.372 826.797C471.797 823.973 473.01 820.993 473.01 817.856C473.01 814.719 472.491 812.209 471.451 810.327C470.411 808.444 468.506 806.719 465.733 805.15C462.961 803.581 459.15 803.111 454.298 803.739C449.446 804.366 446.155 805.621 444.422 807.503C442.689 809.385 441.649 811.111 441.303 812.68C440.957 814.248 404.744 815.032 332.667 815.032C260.589 815.032 207.917 799.974 174.65 769.857C141.383 739.741 103.958 724.682 62.375 724.682C41.5833 724.682 20.7917 724.682 0 724.682C0 725.466 0 726.251 0 727.035ZM954.857 732.682C957.283 732.995 959.362 734.094 961.095 735.976C962.828 737.858 963.694 740.054 963.694 742.564C963.694 745.074 963 747.113 961.615 748.682C960.229 750.25 957.283 751.034 952.778 751.034C948.274 751.034 945.501 750.407 944.461 749.152C943.422 747.898 942.728 746.015 942.382 743.505C942.036 740.995 942.209 739.113 942.902 737.858C943.596 736.604 945.155 735.348 947.58 734.094C950.006 732.839 952.432 732.369 954.857 732.682ZM282.247 735.505C279.128 736.447 276.703 737.701 274.97 739.27C273.237 740.839 272.025 742.564 271.331 744.446C270.638 746.329 270.638 748.995 271.331 752.446C272.025 755.897 274.104 758.877 277.569 761.387C281.034 763.897 285.019 764.838 289.524 764.21C294.028 763.583 297.321 762.328 299.4 760.446C301.479 758.564 302.692 756.681 303.039 754.799C303.385 752.917 330.934 751.976 385.685 751.976C440.437 751.976 479.074 762.485 501.599 783.504C524.124 804.523 554.618 815.032 593.082 815.032C631.547 815.032 651.125 816.131 651.819 818.326C652.512 820.522 654.244 822.562 657.017 824.444C659.789 826.326 663.6 827.11 668.452 826.797C673.304 826.483 677.115 824.444 679.888 820.679C682.66 816.915 683.526 812.993 682.486 808.915C681.447 804.837 679.194 801.856 675.729 799.974C672.264 798.092 668.278 797.621 663.774 798.562C659.269 799.503 656.151 800.758 654.418 802.327C652.685 803.896 651.645 805.621 651.299 807.503C650.953 809.385 632.067 810.327 594.642 810.327C557.217 810.327 527.242 799.817 504.718 778.798C482.193 757.78 443.036 747.27 387.245 747.27C331.453 747.27 302.692 745.701 300.959 742.564C299.226 739.427 296.455 737.231 292.643 735.976C288.831 734.721 285.366 734.564 282.247 735.505ZM1789.64 754.328C1787.22 755.897 1786 758.721 1786 762.799C1786 766.877 1784.79 770.171 1782.37 772.681C1779.94 775.191 1763.65 789.621 1733.51 815.974C1703.36 842.326 1655.36 885.618 1589.52 945.852C1523.69 1006.08 1489.2 1035.89 1486.08 1035.26C1482.97 1034.63 1480.02 1035.1 1477.25 1036.67C1474.47 1038.24 1472.91 1040.28 1472.57 1042.79C1472.23 1045.3 1472.75 1047.66 1474.13 1049.85C1475.51 1052.04 1476.9 1053.45 1478.29 1054.08C1479.67 1054.71 1482.27 1054.71 1486.08 1054.08C1489.9 1053.45 1492.32 1052.51 1493.36 1051.26C1494.4 1050.01 1494.74 1047.5 1494.4 1043.73C1494.06 1039.97 1515.89 1018.01 1559.89 977.851C1603.9 937.695 1652.94 893.305 1707 844.678C1761.05 796.052 1790.16 771.897 1794.32 772.21C1798.48 772.524 1801.6 771.897 1803.68 770.328C1805.76 768.759 1806.97 766.72 1807.32 764.21C1807.66 761.7 1807.49 759.662 1806.8 758.093C1806.1 756.524 1804.72 755.112 1802.64 753.858C1800.56 752.603 1798.48 751.976 1796.4 751.976C1794.32 751.976 1792.06 752.76 1789.64 754.328ZM1993.4 754.799C1992.36 756.054 1967.75 756.681 1919.59 756.681C1871.43 756.681 1822.05 779.582 1771.45 825.385C1720.85 871.188 1694.7 893.775 1692.96 893.147C1691.23 892.52 1687.94 892.52 1683.09 893.147C1678.23 893.775 1674.59 895.5 1672.17 898.324C1669.75 901.147 1668.87 904.755 1669.57 909.147C1670.27 913.539 1672.17 916.833 1675.29 919.029C1678.41 921.225 1682.39 922.01 1687.24 921.382C1692.1 920.754 1695.74 918.872 1698.16 915.735C1700.58 912.598 1701.45 908.676 1700.76 903.971C1700.06 899.265 1719.99 879.03 1760.53 843.267C1801.08 807.503 1826.2 784.916 1835.9 775.504C1845.6 766.093 1874.55 761.387 1922.71 761.387C1946.8 761.387 1970.87 761.387 1994.96 761.387C1994.96 759.975 1994.96 758.564 1994.96 757.152C1994.96 755.74 1994.96 754.328 1994.96 752.917C1994.44 753.544 1993.92 754.171 1993.4 754.799ZM0 760.446C0 761.387 0 762.328 0 763.269C18.0194 763.269 36.0389 763.269 54.0583 763.269C90.0973 763.269 130.468 783.661 175.17 824.444C219.872 865.226 325.216 885.618 491.203 885.618C657.19 885.618 750.925 875.736 772.41 855.972C793.895 836.208 856.27 826.326 959.535 826.326C1062.8 826.326 1122.75 833.855 1139.38 848.914C1156.02 863.972 1193.44 871.501 1251.66 871.501C1309.88 871.501 1339.68 873.07 1341.06 876.207C1342.45 879.344 1344.7 881.697 1347.82 883.265C1350.94 884.834 1354.92 885.148 1359.78 884.207C1364.63 883.265 1367.91 881.54 1369.65 879.03C1371.39 876.52 1371.91 872.913 1371.21 868.207C1370.51 863.501 1368.61 860.207 1365.49 858.325C1362.37 856.443 1358.74 855.659 1354.58 855.972C1350.42 856.286 1347.12 857.384 1344.7 859.266C1342.28 861.148 1340.89 862.874 1340.54 864.443C1340.2 866.011 1311.26 866.795 1253.74 866.795C1196.22 866.795 1159.14 859.266 1142.5 844.208C1125.87 829.15 1065.23 821.463 960.575 821.15C855.923 820.836 792.509 830.561 770.331 850.325C748.154 870.089 654.938 879.971 490.683 879.971C326.429 879.971 221.777 859.58 176.729 818.797C131.681 778.014 90.9635 757.622 54.5781 757.622C36.3854 757.622 18.1927 757.622 0 757.622C0 758.564 0 759.505 0 760.446ZM1521.43 766.563C1518.31 767.505 1515.54 769.387 1513.11 772.21C1510.69 775.034 1509.82 778.641 1510.51 783.033C1511.21 787.426 1513.63 790.72 1517.79 792.915C1521.95 795.111 1524.03 803.425 1524.03 817.856C1524.03 832.286 1505.49 856.286 1468.41 889.853C1431.33 923.421 1410.54 939.734 1406.04 938.793C1401.54 937.852 1398.24 937.695 1396.16 938.322C1394.08 938.95 1392.18 940.048 1390.44 941.616C1388.71 943.188 1387.5 946.162 1386.8 950.557C1386.11 954.953 1386.11 957.927 1386.8 959.498C1387.5 961.07 1388.88 962.632 1390.96 964.204C1393.04 965.776 1395.64 966.867 1398.76 967.498C1401.88 968.129 1405.52 967.498 1409.68 965.616C1413.83 963.733 1416.43 961.691 1417.47 959.498C1418.51 957.305 1419.03 955.103 1419.03 952.91C1419.03 950.717 1418.51 948.675 1417.47 946.793C1416.43 944.911 1434.8 927.029 1472.57 893.147C1510.34 859.266 1529.23 834.639 1529.23 819.268C1529.23 803.896 1530.27 795.896 1532.35 795.268C1534.43 794.641 1536.33 793.543 1538.06 791.974C1539.8 790.405 1541.01 787.426 1541.7 783.033C1542.4 778.641 1541.7 775.034 1539.62 772.21C1537.54 769.387 1534.77 767.505 1531.31 766.563C1527.84 765.622 1524.55 765.622 1521.43 766.563ZM1889.44 788.68C1887.02 790.562 1885.8 792.915 1885.8 795.739C1885.8 798.562 1886.84 800.915 1888.92 802.797C1891 804.68 1893.78 805.621 1897.24 805.621C1900.7 805.621 1903.13 805.15 1904.52 804.209C1905.9 803.268 1906.77 802.013 1907.12 800.445C1907.46 798.876 1922.37 798.092 1951.82 798.092C1966.55 798.092 1981.27 798.092 1996 798.092C1996 797.464 1996 796.837 1996 796.209C1996 795.582 1996 794.955 1996 794.327C1981.27 794.327 1966.55 794.327 1951.82 794.327C1922.37 794.327 1907.46 793.386 1907.12 791.504C1906.77 789.621 1906.08 788.367 1905.04 787.739C1904 787.111 1901.74 786.641 1898.28 786.327C1894.82 786.014 1891.86 786.798 1889.44 788.68ZM1629.03 790.092C1631.8 791.661 1633.01 793.543 1632.67 795.739C1632.32 797.935 1631.45 799.503 1630.07 800.445C1628.68 801.386 1626.95 801.699 1624.87 801.386C1622.79 801.072 1621.23 800.287 1620.19 799.033C1619.15 797.778 1618.81 796.052 1619.15 793.857C1619.49 791.661 1620.53 790.092 1622.27 789.151C1624.01 788.21 1626.25 788.523 1629.03 790.092ZM666.893 802.797C670.011 802.797 672.61 803.739 674.69 805.621C676.769 807.503 677.635 810.013 677.289 813.15C676.942 816.287 675.556 818.64 673.13 820.209C670.705 821.778 668.279 822.404 665.853 822.091C663.428 821.778 661.175 820.522 659.096 818.326C657.017 816.131 656.151 813.778 656.497 811.268C656.843 808.758 657.883 806.719 659.616 805.15C661.349 803.581 663.774 802.797 666.893 802.797ZM1328.07 807.503C1324.25 810.013 1322.17 813.463 1321.83 817.856C1321.49 822.248 1321.65 824.914 1322.35 825.856C1323.05 826.797 1320.97 829.62 1316.11 834.326C1311.26 839.032 1290.82 841.384 1254.78 841.384C1218.73 841.384 1199.86 839.816 1198.12 836.679C1196.38 833.542 1193.1 831.502 1188.24 830.561C1183.39 829.62 1179.23 830.091 1175.77 831.973C1172.31 833.855 1170.05 836.522 1169.01 839.973C1167.97 843.424 1167.63 845.933 1167.97 847.502C1168.31 849.071 1169.35 850.953 1171.09 853.149C1172.83 855.344 1176.11 856.913 1180.97 857.854C1185.82 858.796 1189.98 858.325 1193.44 856.443C1196.9 854.56 1198.98 852.521 1199.68 850.325C1200.38 848.13 1219.09 847.031 1255.82 847.031C1292.55 847.031 1313.69 844.365 1319.23 839.032C1324.77 833.698 1328.41 831.502 1330.15 832.444C1331.88 833.385 1334.48 833.855 1337.94 833.855C1341.41 833.855 1344.88 832.286 1348.34 829.15C1351.8 826.013 1353.71 823.032 1354.06 820.209C1354.4 817.385 1354.06 814.875 1353.02 812.68C1351.98 810.484 1350.42 808.602 1348.34 807.033C1346.26 805.464 1343.32 804.523 1339.5 804.209C1335.69 803.896 1331.88 804.993 1328.07 807.503ZM456.897 808.444C460.016 808.444 462.268 809.072 463.654 810.327C465.04 811.581 466.08 813.464 466.773 815.974C467.466 818.484 467.119 820.836 465.733 823.032C464.348 825.228 462.441 826.64 460.016 827.267C457.59 827.895 455.511 828.051 453.778 827.738C452.045 827.424 450.486 826.64 449.1 825.385C447.714 824.13 446.847 822.091 446.501 819.268C446.155 816.444 447.021 813.934 449.1 811.738C451.179 809.543 453.778 808.444 456.897 808.444ZM1567.69 831.973C1566.31 833.228 1565.79 834.639 1566.13 836.208C1566.48 837.777 1540.14 862.56 1487.12 910.559C1434.11 958.557 1406.73 982.396 1405 982.086C1403.26 981.775 1401.88 982.086 1400.84 983.027C1399.8 983.968 1399.62 985.54 1400.32 987.733C1401.02 989.925 1402.74 990.716 1405.52 990.086C1408.29 989.455 1409.68 988.203 1409.68 986.321C1409.68 984.439 1410.71 982.396 1412.79 980.203C1414.87 978.011 1441.04 954.162 1491.28 908.676C1541.53 863.188 1567.87 840.443 1570.29 840.443C1572.71 840.443 1574.45 839.973 1575.49 839.032C1576.53 838.09 1577.05 836.836 1577.05 835.267C1577.05 833.698 1576.53 832.444 1575.49 831.502C1574.45 830.561 1573.23 830.091 1571.85 830.091C1570.47 830.091 1569.07 830.718 1567.69 831.973ZM1853.06 832.914C1850.64 833.542 1848.38 834.796 1846.3 836.679C1844.22 838.561 1842.84 841.227 1842.14 844.678C1841.45 848.13 1841.62 850.953 1842.66 853.149C1843.7 855.344 1824.99 873.854 1786.52 908.676C1748.06 943.499 1712.02 961.07 1678.41 961.381C1644.8 961.691 1626.77 963.423 1624.35 966.557C1621.93 969.691 1609.28 981.615 1586.4 1002.32C1563.53 1023.03 1549.32 1033.07 1543.78 1032.44C1538.24 1031.81 1533.73 1032.75 1530.27 1035.26C1526.8 1037.77 1524.89 1040.91 1524.55 1044.67C1524.21 1048.44 1524.37 1051.1 1525.07 1052.67C1525.77 1054.24 1527.84 1056.13 1531.31 1058.32C1534.77 1060.51 1538.76 1061.3 1543.26 1060.67C1547.76 1060.04 1551.23 1058.01 1553.66 1054.55C1556.08 1051.1 1556.78 1047.34 1555.74 1043.26C1554.7 1039.19 1567.17 1025.22 1593.16 1001.38C1619.15 977.54 1648.78 965.616 1682.05 965.616C1715.31 965.616 1751.18 948.044 1789.64 912.911C1828.11 877.776 1850.46 860.365 1856.7 860.678C1862.93 860.991 1867.27 860.207 1869.69 858.325C1872.11 856.443 1873.67 854.56 1874.37 852.678C1875.07 850.796 1875.07 848.13 1874.37 844.678C1873.67 841.227 1872.47 838.718 1870.73 837.149C1868.99 835.58 1866.23 834.326 1862.41 833.385C1858.6 832.444 1855.48 832.286 1853.06 832.914ZM81.0875 834.796C79.7014 836.051 79.1816 837.306 79.5281 838.561C79.8746 839.816 67.7462 851.58 43.1427 873.854C18.5392 896.128 5.19792 907.422 3.11875 907.735C1.03958 908.049 0 908.519 0 909.147C0 909.46 0 909.775 0 910.088C1.21285 910.088 2.42569 910.088 3.63854 910.088C6.06423 910.088 19.5788 898.794 44.1823 876.207C68.7858 853.619 82.4736 842.012 85.2458 841.384C88.0181 840.757 89.4042 839.659 89.4042 838.09C89.4042 836.521 88.3646 835.267 86.2854 834.326C84.2062 833.385 82.4736 833.542 81.0875 834.796ZM1572.37 833.385C1573.41 833.698 1573.75 834.483 1573.41 835.738C1573.23 836.365 1573.07 836.992 1572.89 837.62C1572.19 837.306 1571.51 836.992 1570.81 836.679C1570.11 836.365 1569.43 836.051 1568.73 835.738C1569.07 835.267 1569.43 834.796 1569.77 834.326C1570.47 833.385 1571.33 833.071 1572.37 833.385ZM1083.25 837.149C1080.47 839.345 1079.43 842.326 1080.13 846.09C1080.82 849.855 1082.21 852.208 1084.29 853.149C1086.36 854.09 1089.31 854.247 1093.12 853.619C1096.94 852.992 1106.46 859.423 1121.71 872.913C1136.96 886.402 1169.53 892.99 1219.43 892.677C1269.33 892.363 1294.46 892.99 1294.8 894.559C1295.14 896.128 1296.7 897.696 1299.48 899.265C1302.25 900.834 1305.54 901.147 1309.36 900.206C1313.17 899.265 1315.42 898.167 1316.11 896.912C1316.81 895.657 1317.15 893.618 1317.15 890.795C1317.15 887.971 1315.94 885.618 1313.51 883.736C1311.09 881.854 1307.97 881.226 1304.16 881.854C1300.34 882.481 1297.74 883.893 1296.36 886.089C1294.98 888.285 1269.33 889.383 1219.43 889.383C1169.53 889.383 1137.3 882.952 1122.75 870.089C1108.2 857.227 1100.92 848.756 1100.92 844.678C1100.92 840.6 1099.88 837.777 1097.8 836.208C1095.72 834.639 1093.46 833.855 1091.04 833.855C1088.62 833.855 1086.02 834.954 1083.25 837.149ZM1184.61 834.796C1187.03 834.796 1189.46 835.738 1191.88 837.62C1194.3 839.502 1195.34 842.012 1195 845.149C1194.66 848.286 1193.1 850.639 1190.32 852.208C1187.55 853.776 1184.78 854.247 1182.01 853.619C1179.23 852.992 1177.15 851.894 1175.77 850.325C1174.39 848.756 1174.03 846.247 1174.73 842.796C1175.43 839.345 1176.63 837.149 1178.37 836.208C1180.1 835.267 1182.18 834.796 1184.61 834.796ZM84.2063 835.738C84.5527 835.895 84.8993 836.051 85.2458 836.208C85.9389 836.522 86.1121 837.306 85.7656 838.561C85.5923 839.189 85.4191 839.816 85.2458 840.443C84.726 840.286 84.2062 840.13 83.6865 839.973C83.1667 839.816 82.6469 839.659 82.1271 839.502C82.4736 838.874 82.8202 838.248 83.1667 837.62C83.5132 836.992 83.8598 836.365 84.2063 835.738ZM1091.04 838.09C1093.46 838.404 1095.2 839.189 1096.24 840.443C1097.28 841.698 1097.8 842.953 1097.8 844.208C1097.8 845.462 1097.1 846.874 1095.72 848.443C1094.34 850.012 1092.6 850.796 1090.52 850.796C1088.44 850.796 1086.71 850.168 1085.32 848.914C1083.94 847.659 1083.25 846.09 1083.25 844.208C1083.25 842.326 1083.94 840.757 1085.32 839.502C1086.71 838.248 1088.62 837.777 1091.04 838.09ZM256.777 842.326C254.698 844.208 253.485 846.09 253.139 847.972C252.792 849.855 252.965 851.58 253.658 853.149C254.352 854.718 255.737 856.129 257.817 857.384C259.896 858.638 262.668 859.109 266.133 858.796C269.598 858.482 272.197 857.227 273.93 855.031C275.663 852.835 346.355 851.737 486.005 851.737C555.831 851.737 625.656 851.737 695.481 851.737C695.481 852.208 695.481 852.678 695.481 853.149C695.481 854.09 696.521 855.344 698.6 856.913C700.679 858.482 703.278 859.266 706.397 859.266C709.516 859.266 712.115 858.325 714.194 856.443C716.273 854.56 717.312 852.208 717.312 849.384C717.312 846.561 716.099 844.208 713.674 842.326C711.249 840.443 708.302 839.659 704.838 839.973C701.373 840.286 698.774 841.698 697.041 844.208C695.308 846.718 624.79 847.972 485.485 847.972C346.181 847.972 275.663 846.718 273.93 844.208C272.197 841.698 269.426 840.286 265.614 839.973C261.801 839.659 258.856 840.443 256.777 842.326ZM919.511 852.208C919.165 854.403 920.377 855.815 923.15 856.443C925.923 857.07 928.174 858.012 929.907 859.266C931.64 860.521 937.358 865.541 947.06 874.325C956.763 883.108 961.615 888.599 961.615 890.795C961.615 892.99 962.828 894.402 965.253 895.03C967.678 895.657 969.411 895.5 970.451 894.559C971.491 893.618 972.01 892.364 972.01 890.795C972.01 889.226 971.317 887.971 969.931 887.03C968.545 886.089 966.812 885.618 964.733 885.618C962.654 885.618 956.07 880.599 944.981 870.56C933.892 860.521 928.521 854.874 928.868 853.619C929.214 852.365 929.041 851.266 928.348 850.325C927.654 849.384 926.095 848.914 923.67 848.914C921.244 848.914 919.858 850.012 919.511 852.208ZM974.609 850.796C973.57 852.05 973.224 853.149 973.57 854.09C973.916 855.031 975.475 855.815 978.248 856.443C981.021 857.07 983.272 858.012 985.005 859.266C986.738 860.521 992.456 865.541 1002.16 874.325C1011.86 883.108 1016.89 888.755 1017.23 891.265C1017.58 893.775 1019.14 895.03 1021.91 895.03C1023.3 895.03 1024.68 895.03 1026.07 895.03C1026.07 893.775 1026.07 892.52 1026.07 891.265C1026.07 888.755 1024.51 887.187 1021.39 886.559C1018.27 885.932 1011.17 880.599 1000.08 870.56C988.99 860.521 983.272 854.403 982.926 852.208C982.58 850.012 981.367 848.914 979.287 848.914C977.208 848.914 975.649 849.541 974.609 850.796ZM1030.23 852.208C1029.88 853.306 1029.53 854.403 1029.19 855.502C1030.57 855.815 1031.96 856.129 1033.35 856.443C1036.12 857.07 1038.37 858.012 1040.1 859.266C1041.84 860.521 1047.56 865.541 1057.26 874.325C1066.96 883.108 1071.99 888.755 1072.33 891.265C1072.67 893.775 1074.23 895.03 1077.01 895.03C1079.78 895.03 1081.34 893.931 1081.69 891.736C1082.03 889.54 1081.51 887.971 1080.13 887.03C1078.74 886.089 1077.19 885.618 1075.45 885.618C1073.71 885.618 1067.31 880.599 1056.22 870.56C1045.12 860.521 1039.24 854.403 1038.54 852.208C1037.85 850.012 1036.46 848.914 1034.39 848.914C1032.31 848.914 1030.92 850.012 1030.23 852.208ZM950.699 851.737C949.659 852.365 949.14 853.462 949.14 855.031C949.14 856.6 949.659 857.854 950.699 858.796C951.739 859.737 953.298 860.207 955.377 860.207C957.456 860.207 964.214 865.384 975.649 875.736C987.084 886.089 992.628 892.049 992.282 893.618C991.936 895.187 992.282 896.441 993.322 897.383C994.361 898.324 995.921 898.637 998 898.324C1000.08 898.01 1001.12 896.441 1001.12 893.618C1001.12 890.795 999.733 889.226 996.96 888.912C994.188 888.599 987.258 883.423 976.169 873.383C965.08 863.344 959.535 857.384 959.535 855.502C959.535 853.619 958.322 852.365 955.897 851.737C953.471 851.109 951.739 851.109 950.699 851.737ZM1005.8 852.208C1004.76 853.149 1004.41 854.403 1004.76 855.972C1005.1 857.541 1006.66 858.638 1009.44 859.266C1012.21 859.894 1019.14 865.227 1030.23 875.266C1041.32 885.305 1046.68 891.108 1046.34 892.677C1046 894.246 1046.34 895.657 1047.38 896.912C1048.42 898.167 1049.98 898.637 1052.06 898.324C1054.14 898.01 1055.18 896.441 1055.18 893.618C1055.18 890.795 1053.96 889.226 1051.54 888.912C1049.12 888.599 1042.36 883.423 1031.27 873.383C1020.18 863.344 1014.63 857.384 1014.63 855.502C1014.63 853.619 1013.42 852.365 1010.99 851.737C1008.57 851.109 1006.84 851.266 1005.8 852.208ZM1955.46 854.09C1952.68 856.286 1951.64 858.953 1952.34 862.09C1953.03 865.227 1928.43 889.069 1878.53 933.617C1828.63 978.161 1803.33 1000.91 1802.64 1001.85C1801.94 1002.79 1801.6 1009.22 1801.6 1021.14C1801.6 1027.1 1801.6 1033.07 1801.6 1039.03C1801.08 1039.03 1800.56 1039.03 1800.04 1039.03C1799 1039.03 1797.62 1039.97 1795.88 1041.85C1794.14 1043.73 1793.28 1045.92 1793.28 1048.44C1793.28 1050.95 1793.8 1052.98 1794.84 1054.55C1795.88 1056.13 1797.96 1057.38 1801.08 1058.32C1804.2 1059.26 1806.62 1059.42 1808.36 1058.79C1810.09 1058.16 1811.82 1056.75 1813.55 1054.55C1815.29 1052.36 1815.81 1049.69 1815.11 1046.55C1814.42 1043.42 1812.51 1041.22 1809.39 1039.97C1806.28 1038.71 1804.72 1032.6 1804.72 1021.61C1804.72 1010.63 1829.67 982.556 1879.57 937.381C1929.47 892.206 1956.5 869.776 1960.65 870.089C1964.81 870.403 1967.75 870.089 1969.49 869.148C1971.23 868.207 1972.43 865.854 1973.13 862.09C1973.83 858.325 1973.31 855.659 1971.57 854.09C1969.83 852.521 1967.41 851.58 1964.29 851.266C1961.17 850.953 1958.23 851.894 1955.46 854.09ZM922.11 851.737C922.804 851.737 923.496 851.737 924.19 851.737C924.883 851.737 925.575 851.737 926.269 851.737C926.095 852.365 925.923 852.992 925.749 853.619C925.575 854.247 925.403 854.874 925.229 855.502C924.709 855.344 924.19 855.188 923.67 855.031C922.63 854.718 922.11 854.09 922.11 853.149C922.11 852.678 922.11 852.208 922.11 851.737ZM977.208 851.737C977.728 851.737 978.248 851.737 978.768 851.737C979.807 851.737 980.501 852.208 980.847 853.149C981.02 853.619 981.193 854.09 981.367 854.56C980.847 854.718 980.327 854.874 979.807 855.031C979.288 855.188 978.768 855.344 978.248 855.502C978.074 854.874 977.902 854.247 977.728 853.619C977.555 852.992 977.382 852.365 977.208 851.737ZM1032.31 851.737C1033 851.737 1033.69 851.737 1034.39 851.737C1035.08 851.737 1035.77 851.737 1036.46 851.737C1036.46 852.208 1036.46 852.678 1036.46 853.149C1036.46 854.09 1035.94 854.718 1034.91 855.031C1034.39 855.188 1033.87 855.344 1033.35 855.502C1033.17 854.874 1033 854.247 1032.83 853.619C1032.65 852.992 1032.48 852.365 1032.31 851.737ZM1358.22 860.678C1360.64 860.991 1362.72 862.247 1364.45 864.443C1366.19 866.638 1366.71 869.148 1366.01 871.972C1365.32 874.795 1364.11 876.835 1362.37 878.089C1360.64 879.344 1358.39 879.971 1355.62 879.971C1352.84 879.971 1350.42 878.873 1348.34 876.677C1346.26 874.482 1345.56 871.658 1346.26 868.207C1346.96 864.756 1348.52 862.56 1350.94 861.619C1353.36 860.678 1355.79 860.365 1358.22 860.678ZM87.8448 873.383C86.1121 874.011 84.726 875.109 83.6865 876.677C82.6469 878.246 82.4736 880.599 83.1667 883.736C83.8598 886.873 83.5132 889.226 82.1271 890.795C80.741 892.364 72.5975 899.893 57.6969 913.382C42.7962 926.872 29.4548 933.617 17.6729 933.617C11.7819 933.617 5.89098 933.617 0 933.617C0 934.244 0 934.871 0 935.499C0 936.127 0 936.754 0 937.381C6.41077 937.224 12.8215 937.068 19.2323 936.911C32.0538 936.597 46.4348 928.911 62.375 913.853C78.3152 898.794 87.8448 891.579 90.9635 892.206C94.0823 892.834 97.0277 892.364 99.8 890.795C102.572 889.226 104.132 886.717 104.478 883.265C104.824 879.814 104.652 877.619 103.958 876.677C103.265 875.736 100.84 874.795 96.6813 873.854C92.5229 872.913 89.5775 872.756 87.8448 873.383ZM1868.13 880.442C1865.36 882.011 1863.97 884.834 1863.97 888.912C1863.97 892.99 1863.45 895.657 1862.41 896.912C1861.37 898.167 1838.33 919.029 1793.28 959.498C1748.24 999.968 1707.17 1020.2 1670.09 1020.2C1633.01 1020.2 1572.89 1058.01 1489.72 1133.61C1448.14 1171.42 1406.56 1209.21 1364.97 1247.02C1365.84 1247.02 1366.71 1247.02 1367.57 1247.02C1369.31 1247.02 1372.07 1245.45 1375.89 1242.31C1379.7 1239.18 1420.41 1202.15 1498.04 1131.26C1575.67 1060.36 1633.36 1024.75 1671.13 1024.44C1708.9 1024.13 1750.84 1002.95 1796.92 960.91C1843 918.872 1868.13 898.01 1872.29 898.324C1876.45 898.637 1879.57 898.01 1881.65 896.441C1883.73 894.873 1884.94 892.677 1885.28 889.853C1885.63 887.03 1885.46 884.991 1884.76 883.736C1884.07 882.481 1881.82 881.226 1878.01 879.971C1874.19 878.717 1870.91 878.873 1868.13 880.442ZM1877.49 884.207C1880.26 885.775 1881.47 887.501 1881.13 889.383C1880.78 891.265 1879.74 892.834 1878.01 894.089C1876.27 895.343 1874.55 895.814 1872.81 895.5C1871.07 895.187 1869.69 894.402 1868.65 893.147C1867.61 891.893 1867.09 890.324 1867.09 888.442C1867.09 886.559 1868.13 884.991 1870.21 883.736C1872.29 882.481 1874.71 882.638 1877.49 884.207ZM770.331 890.324C766.866 893.461 764.96 896.441 764.614 899.265C764.267 902.088 764.44 904.441 765.133 906.323C765.827 908.206 767.906 910.245 771.371 912.441C774.836 914.637 778.994 915.422 783.846 914.794C788.698 914.166 807.93 929.224 841.543 959.969C875.156 990.716 921.764 1006.24 981.367 1006.56C1040.97 1006.87 1077.19 1012.83 1090 1024.44C1102.82 1036.04 1108.72 1042.63 1107.68 1044.2C1106.64 1045.77 1106.12 1047.97 1106.12 1050.79C1106.12 1053.61 1107.33 1056.6 1109.76 1059.73C1112.18 1062.86 1115.65 1064.75 1120.15 1065.38C1124.65 1066.01 1128.81 1064.91 1132.63 1062.08C1136.44 1059.26 1138.52 1056.13 1138.86 1052.67C1139.21 1049.22 1138 1045.77 1135.22 1042.32C1132.45 1038.87 1128.81 1036.98 1124.31 1036.67C1119.81 1036.36 1116.69 1036.51 1114.95 1037.14C1113.22 1037.77 1105.77 1031.97 1092.6 1019.73C1079.43 1007.5 1043.22 1001.38 983.966 1001.38C924.709 1001.38 878.448 986.321 845.181 956.204C811.915 926.088 795.627 910.245 796.321 908.676C797.014 907.107 797.187 904.128 796.841 899.735C796.494 895.343 794.588 891.893 791.123 889.383C787.658 886.873 784.192 885.618 780.727 885.618C777.262 885.618 773.796 887.187 770.331 890.324ZM782.806 890.795C784.885 891.108 786.965 892.52 789.044 895.03C791.123 897.54 791.816 900.206 791.123 903.029C790.43 905.853 789.044 907.892 786.965 909.147C784.885 910.401 782.46 910.872 779.688 910.559C776.915 910.245 774.663 909.147 772.93 907.265C771.197 905.382 770.505 903.029 770.851 900.206C771.197 897.383 772.757 895.03 775.529 893.147C778.302 891.265 780.727 890.481 782.806 890.795ZM995.921 891.265C996.441 891.422 996.96 891.579 997.48 891.736C998.52 892.049 998.866 892.834 998.52 894.089C998.346 894.716 998.174 895.343 998 895.971C997.48 895.814 996.96 895.657 996.441 895.5C995.401 895.187 995.055 894.402 995.401 893.147C995.575 892.52 995.747 891.893 995.921 891.265ZM1049.98 891.265C1050.5 891.422 1051.02 891.579 1051.54 891.736C1052.58 892.049 1052.92 892.834 1052.58 894.089C1052.4 894.716 1052.24 895.343 1052.06 895.971C1051.54 895.814 1051.02 895.657 1050.5 895.5C1049.46 895.187 1049.12 894.402 1049.46 893.147C1049.64 892.52 1049.8 891.893 1049.98 891.265ZM1688.8 898.324C1691.92 899.265 1694 900.677 1695.04 902.559C1696.08 904.441 1696.42 906.324 1696.08 908.206C1695.74 910.088 1694.52 911.97 1692.44 913.853C1690.36 915.735 1687.94 916.676 1685.16 916.676C1682.39 916.676 1679.97 915.892 1677.89 914.323C1675.81 912.754 1674.95 910.088 1675.29 906.323C1675.63 902.559 1677.19 900.049 1679.97 898.794C1682.74 897.54 1685.68 897.383 1688.8 898.324ZM1245.94 905.382C1244.2 906.637 1243.16 907.892 1242.82 909.147C1242.48 910.401 1194.66 911.029 1099.36 911.029C1004.06 911.029 950.006 917.147 937.184 929.382C924.363 941.617 915.527 947.734 910.675 947.734C905.823 947.734 902.704 948.365 901.319 949.616C899.933 950.868 899.066 952.6 898.72 954.793C898.374 956.985 898.374 958.717 898.72 959.969C899.066 961.221 900.279 962.632 902.358 964.204C904.438 965.776 907.383 966.397 911.195 966.086C915.007 965.776 917.606 964.835 918.992 963.263C920.377 961.691 920.897 959.028 920.551 955.263C920.205 951.498 926.442 943.809 939.264 932.205C952.085 920.598 1005.62 914.794 1099.88 914.794C1194.14 914.794 1241.96 916.048 1243.34 918.558C1244.72 921.068 1247.16 922.636 1250.62 923.264C1254.08 923.892 1257.03 923.421 1259.46 921.852C1261.88 920.284 1263.27 917.931 1263.61 914.794C1263.96 911.657 1262.92 908.99 1260.49 906.794C1258.07 904.598 1255.47 903.5 1252.7 903.5C1249.92 903.5 1247.68 904.128 1245.94 905.382ZM107.077 910.088C104.305 912.598 103.092 915.264 103.439 918.088C103.785 920.911 105.172 923.107 107.597 924.676C110.022 926.245 112.968 926.715 116.433 926.088C119.898 925.46 122.325 924.048 123.71 921.852C125.096 919.657 136.185 918.558 156.977 918.558C177.769 918.558 191.457 921.695 198.041 927.97C204.624 934.244 239.798 937.381 303.558 937.381C367.319 937.381 399.546 938.165 400.24 939.734C400.933 941.306 402.319 942.718 404.398 943.969C406.477 945.221 409.25 945.541 412.715 944.91C416.18 944.28 418.606 942.868 419.992 940.675C421.377 938.48 421.551 935.656 420.511 932.205C419.472 928.754 417.913 926.558 415.833 925.617C413.754 924.676 410.982 924.676 407.517 925.617C404.052 926.558 401.799 928.127 400.759 930.323C399.72 932.518 367.493 933.617 304.078 933.617C240.664 933.617 205.838 930.48 199.6 924.205C193.363 917.931 179.502 914.794 158.017 914.794C136.532 914.794 124.924 913.539 123.191 911.029C121.458 908.519 119.032 907.107 115.914 906.794C112.795 906.481 109.85 907.578 107.077 910.088ZM1252.7 907.265C1254.78 907.265 1256.51 907.892 1257.9 909.147C1259.28 910.401 1259.97 911.97 1259.97 913.853C1259.97 915.735 1259.11 917.304 1257.38 918.558C1255.64 919.813 1253.74 920.284 1251.66 919.97C1249.58 919.657 1248.02 918.872 1246.98 917.617C1245.94 916.363 1245.42 915.107 1245.42 913.853C1245.42 912.598 1246.12 911.186 1247.5 909.617C1248.88 908.049 1250.62 907.265 1252.7 907.265ZM430.387 951.969C399.2 980.514 326.429 994.791 212.075 994.791C97.7208 994.791 39.8507 993.539 38.4646 991.027C37.0785 988.514 34.4795 987.102 30.6677 986.791C26.8559 986.481 24.0837 986.791 22.351 987.733C20.6184 988.674 19.4056 990.867 18.7125 994.321C18.0194 997.775 18.7125 1000.6 20.7917 1002.79C22.8708 1004.98 24.95 1006.24 27.0292 1006.56C29.1083 1006.87 31.3608 1006.56 33.7865 1005.61C36.2121 1004.67 37.7715 1003.26 38.4646 1001.38C39.1577 999.497 97.201 998.556 212.595 998.556C327.989 998.556 401.106 984.279 431.947 955.734C462.788 927.186 521.871 912.911 609.196 912.911C696.521 912.911 751.792 923.421 775.009 944.44C798.226 965.456 809.489 976.599 808.796 977.851C808.102 979.102 807.93 980.985 808.276 983.497C808.622 986.01 810.182 988.203 812.954 990.086C815.727 991.968 817.978 992.909 819.711 992.909C821.444 992.909 823.696 991.808 826.469 989.615C829.241 987.422 830.453 984.599 830.107 981.145C829.761 977.691 828.548 975.338 826.469 974.086C824.39 972.834 821.444 972.514 817.632 973.145C813.82 973.775 800.306 963.263 777.089 941.616C753.872 919.97 698.08 909.147 609.716 909.147C521.351 909.147 461.575 923.421 430.387 951.969ZM413.754 930.323C416.527 931.892 417.739 933.774 417.393 935.97C417.047 938.165 416.007 939.734 414.274 940.675C412.541 941.617 410.809 941.927 409.076 941.616C407.343 941.306 405.957 940.515 404.918 939.264C403.878 938.009 403.532 936.283 403.878 934.087C404.224 931.892 405.264 930.323 406.997 929.382C408.73 928.44 410.982 928.754 413.754 930.323ZM475.609 940.205C475.263 942.718 475.436 944.28 476.129 944.91C476.823 945.541 478.208 945.852 480.288 945.852C482.367 945.852 483.926 945.221 484.966 943.969C486.005 942.718 524.124 942.247 599.32 942.558C674.516 942.868 712.461 943.499 713.154 944.44C713.848 945.381 715.407 945.541 717.832 944.91C720.258 944.28 721.125 942.718 720.431 940.205C719.738 937.695 718.526 936.44 716.793 936.44C715.06 936.44 713.674 937.068 712.634 938.322C711.595 939.577 673.476 940.205 598.28 940.205C523.084 940.205 485.139 939.577 484.446 938.322C483.752 937.068 482.193 936.44 479.768 936.44C477.342 936.44 475.956 937.695 475.609 940.205ZM478.208 939.264C478.902 939.421 479.594 939.577 480.288 939.734C481.673 940.048 482.367 940.675 482.367 941.616C482.367 942.087 482.367 942.558 482.367 943.028C481.673 943.028 480.981 943.028 480.288 943.028C479.594 943.028 478.902 943.028 478.208 943.028C478.208 942.398 478.208 941.776 478.208 941.146C478.208 940.515 478.208 939.891 478.208 939.264ZM1404.48 943.969C1407.94 944.6 1410.37 946.012 1411.75 948.204C1413.14 950.397 1413.49 952.75 1412.79 955.263C1412.1 957.776 1410.54 959.658 1408.12 960.91C1405.69 962.162 1402.92 962.482 1399.8 961.851C1396.68 961.221 1394.42 959.969 1393.04 958.087C1391.66 956.204 1391.31 953.851 1392 951.028C1392.7 948.205 1394.08 946.162 1396.16 944.91C1398.24 943.659 1401.02 943.339 1404.48 943.969ZM682.486 953.851C680.061 955.423 678.328 957.456 677.289 959.969C676.249 962.482 648.874 963.733 595.161 963.733C541.449 963.733 508.876 969.07 497.441 979.733C486.005 990.396 477.515 995.422 471.971 994.791C466.427 994.161 462.615 994.481 460.535 995.732C458.456 996.984 456.723 998.716 455.337 1000.91C453.952 1003.1 453.258 1005.61 453.258 1008.44C453.258 1011.26 453.778 1013.61 454.818 1015.5C455.857 1017.38 457.936 1019.26 461.055 1021.14C464.174 1023.03 467.119 1023.97 469.892 1023.97C472.664 1023.97 475.09 1023.5 477.169 1022.55C479.248 1021.61 481.327 1019.73 483.406 1016.91C485.485 1014.08 486.179 1010.48 485.485 1006.08C484.792 1001.69 490.164 994.321 501.599 983.968C513.034 973.615 544.915 968.439 597.241 968.439C649.566 968.439 676.595 970.161 678.328 973.615C680.061 977.069 682.14 979.262 684.566 980.203C686.991 981.145 690.11 981.455 693.922 981.145C697.734 980.834 701.025 979.262 703.798 976.439C706.57 973.615 707.956 970.321 707.956 966.557C707.956 962.792 707.436 959.969 706.397 958.087C705.357 956.204 703.624 954.633 701.199 953.381C698.774 952.129 695.655 951.498 691.843 951.498C688.031 951.498 684.912 952.28 682.486 953.851ZM694.961 957.145C697.387 957.776 699.293 958.868 700.679 960.439C702.065 962.011 702.585 964.364 702.239 967.498C701.892 970.632 700.679 972.834 698.6 974.086C696.521 975.338 693.576 975.658 689.764 975.027C685.951 974.397 683.526 973.305 682.486 971.733C681.447 970.161 681.273 967.809 681.967 964.675C682.66 961.541 684.392 959.338 687.165 958.087C689.937 956.835 692.536 956.515 694.961 957.145ZM95.1219 961.851C94.0823 962.482 93.5625 963.893 93.5625 966.086C93.5625 968.279 94.0823 969.691 95.1219 970.321C96.1615 970.952 97.7208 971.103 99.8 970.792C101.879 970.481 103.092 969.851 103.439 968.91C103.785 967.969 146.755 967.498 232.347 967.498C317.939 967.498 361.255 968.129 362.295 969.38C363.334 970.632 365.067 970.792 367.493 969.851C369.918 968.91 370.611 967.187 369.572 964.675C368.532 962.162 366.973 961.07 364.894 961.381C362.815 961.691 361.601 962.322 361.255 963.263C360.909 964.204 317.939 964.675 232.347 964.675C146.755 964.675 103.785 964.204 103.439 963.263C103.092 962.322 101.879 961.691 99.8 961.381C97.7208 961.07 96.1615 961.221 95.1219 961.851ZM99.2802 964.204C100.32 964.515 100.666 965.305 100.32 966.557C100.146 967.187 99.9733 967.809 99.8 968.439C99.1069 968.129 98.4139 967.809 97.7208 967.498C97.0277 967.187 96.3348 966.867 95.6417 966.557C95.9882 966.086 96.3348 965.616 96.6813 965.145C97.3743 964.204 98.2406 963.893 99.2802 964.204ZM820.751 975.498C822.484 975.808 824.043 976.909 825.429 978.792C826.815 980.674 827.335 982.396 826.989 983.968C826.642 985.54 825.429 986.791 823.35 987.733C821.271 988.674 819.192 988.834 817.112 988.203C815.033 987.573 813.648 986.631 812.954 985.38C812.261 984.128 812.261 982.396 812.954 980.203C813.648 978.011 814.687 976.599 816.073 975.968C817.459 975.338 819.018 975.187 820.751 975.498ZM1301.56 1017.38C1304.33 1018.01 1305.89 1019.57 1306.24 1022.08C1306.58 1024.6 1306.24 1026.48 1305.2 1027.73C1304.16 1028.98 1302.42 1029.61 1300 1029.61C1297.58 1029.61 1295.66 1028.98 1294.28 1027.73C1292.9 1026.48 1292.38 1024.75 1292.72 1022.55C1293.06 1020.36 1293.94 1018.79 1295.32 1017.85C1296.7 1016.91 1298.78 1016.75 1301.56 1017.38ZM1543.78 1037.14C1546.56 1037.77 1548.64 1039.19 1550.02 1041.38C1551.4 1043.57 1551.75 1045.92 1551.06 1048.44C1550.36 1050.95 1549.16 1052.83 1547.42 1054.08C1545.68 1055.34 1543.08 1055.81 1539.62 1055.5C1536.16 1055.18 1533.56 1053.92 1531.83 1051.73C1530.09 1049.54 1529.57 1047.02 1530.27 1044.2C1530.96 1041.38 1532.69 1039.34 1535.46 1038.08C1538.24 1036.83 1541.01 1036.51 1543.78 1037.14ZM1806.28 1042.79C1808.7 1043.42 1810.26 1044.2 1810.95 1045.14C1811.65 1046.08 1811.99 1047.18 1811.99 1048.44C1811.99 1049.69 1811.3 1051.1 1809.91 1052.67C1808.53 1054.24 1806.8 1055.02 1804.72 1055.02C1802.64 1055.02 1800.9 1054.39 1799.52 1053.14C1798.14 1051.89 1797.62 1050.16 1797.96 1047.97C1798.3 1045.77 1799.18 1044.2 1800.56 1043.26C1801.94 1042.32 1803.85 1042.16 1806.28 1042.79ZM0 1047.5C0 1048.44 0 1049.38 0 1050.32C80.5677 1050.32 161.135 1050.32 241.703 1050.32C402.839 1050.32 492.763 1058.79 511.475 1075.73C530.188 1092.67 539.024 1103.18 537.984 1107.26C536.945 1111.33 537.465 1115.1 539.544 1118.55C541.623 1122.01 543.876 1124.2 546.301 1125.14C548.726 1126.08 551.673 1126.39 555.138 1126.08C558.602 1125.77 561.549 1124.67 563.974 1122.79C566.399 1120.9 567.959 1119.02 568.652 1117.14C569.346 1115.26 569.518 1112.59 569.172 1109.14C568.826 1105.69 567.959 1103.18 566.573 1101.61C565.187 1100.04 563.454 1098.79 561.375 1097.85C559.296 1096.91 555.657 1096.75 550.459 1097.38C545.261 1098.01 541.449 1096.75 539.024 1093.61C536.599 1090.48 527.242 1081.54 510.955 1066.79C494.668 1052.04 405.438 1044.67 243.262 1044.67C162.175 1044.67 81.0875 1044.67 0 1044.67C0 1045.61 0 1046.55 0 1047.5ZM1390.44 1046.55C1392.86 1046.55 1395.3 1047.5 1397.72 1049.38C1400.14 1051.26 1401.36 1053.45 1401.36 1055.97C1401.36 1058.48 1400.32 1060.67 1398.24 1062.55C1396.16 1064.44 1393.56 1065.38 1390.44 1065.38C1387.32 1065.38 1384.73 1064.44 1382.65 1062.55C1380.57 1060.67 1379.7 1058.32 1380.05 1055.5C1380.39 1052.67 1381.61 1050.48 1383.69 1048.91C1385.76 1047.34 1388.02 1046.55 1390.44 1046.55ZM1247.5 1092.2C1245.42 1094.39 1244.38 1096.75 1244.38 1099.26C1244.38 1101.77 1245.24 1103.96 1246.98 1105.85C1248.72 1107.73 1250.28 1108.83 1251.66 1109.14C1253.04 1109.45 1253.74 1117.92 1253.74 1134.55C1253.74 1151.18 1237.62 1174.08 1205.4 1203.26C1189.28 1217.84 1173.17 1232.43 1157.06 1247.02C1158.1 1247.02 1159.14 1247.02 1160.18 1247.02C1162.25 1247.02 1179.06 1232.74 1210.59 1204.2C1242.13 1175.65 1257.9 1152.74 1257.9 1135.49C1257.9 1118.24 1259.11 1108.98 1261.53 1107.73C1263.96 1106.48 1265.35 1103.96 1265.69 1100.2C1266.04 1096.44 1265 1093.61 1262.57 1091.73C1260.15 1089.85 1257.55 1088.91 1254.78 1088.91C1252 1088.91 1249.58 1090.01 1247.5 1092.2ZM1658.14 1170.79C1655.36 1172.04 1653.28 1174.08 1651.9 1176.9C1650.52 1179.73 1624.35 1181.14 1573.41 1181.14C1522.47 1181.14 1485.04 1192.12 1461.13 1214.08C1449.18 1225.06 1437.22 1236.04 1425.27 1247.02C1426.65 1247.02 1428.04 1247.02 1429.43 1247.02C1432.2 1247.02 1444.5 1236.98 1466.33 1216.9C1488.16 1196.83 1524.21 1186.79 1574.45 1186.79C1624.69 1186.79 1650.68 1188.36 1652.42 1191.49C1654.15 1194.62 1657.1 1196.83 1661.25 1198.08C1665.41 1199.33 1669.57 1198.86 1673.73 1196.67C1677.89 1194.47 1680.49 1192.43 1681.53 1190.55C1682.57 1188.67 1683.09 1186.47 1683.09 1183.96C1683.09 1181.45 1681.53 1178.47 1678.41 1175.02C1675.29 1171.57 1671.83 1169.68 1668.01 1169.37C1664.2 1169.06 1660.91 1169.53 1658.14 1170.79ZM1263.61 1177.84C1262.57 1178.79 1262.4 1180.51 1263.09 1183.02C1263.79 1185.53 1265 1186.79 1266.73 1186.79C1268.47 1186.79 1269.85 1186.15 1270.89 1184.9C1271.93 1183.65 1280.59 1183.02 1296.88 1183.02C1313.17 1183.02 1321.83 1183.65 1322.87 1184.9C1323.91 1186.15 1325.29 1186.79 1327.03 1186.79C1328.76 1186.79 1330.15 1186.31 1331.19 1185.37C1332.23 1184.43 1332.75 1183.18 1332.75 1181.61C1332.75 1180.04 1332.05 1178.79 1330.67 1177.84C1329.28 1176.9 1327.72 1176.59 1325.99 1176.9C1324.25 1177.21 1323.21 1177.84 1322.87 1178.79C1322.53 1179.73 1313.86 1180.2 1296.88 1180.2C1279.9 1180.2 1271.23 1179.73 1270.89 1178.79C1270.55 1177.84 1269.51 1177.21 1267.77 1176.9C1266.04 1176.59 1264.65 1176.9 1263.61 1177.84ZM1326.51 1179.26C1327.03 1179.57 1327.55 1179.89 1328.07 1180.2C1329.11 1180.83 1329.45 1181.61 1329.11 1182.55C1328.76 1183.49 1327.89 1183.8 1326.51 1183.49C1325.81 1183.33 1325.13 1183.18 1324.43 1183.02C1324.77 1182.39 1325.13 1181.77 1325.47 1181.14C1325.81 1180.51 1326.17 1179.89 1326.51 1179.26ZM1240.22 1195.73C1238.84 1196.67 1238.49 1198.24 1239.18 1200.43C1239.88 1202.62 1241.26 1203.73 1243.34 1203.73C1245.42 1203.73 1246.8 1203.26 1247.5 1202.31C1248.2 1201.37 1256.86 1200.9 1273.49 1200.9C1290.12 1200.9 1298.78 1201.37 1299.48 1202.31C1300.18 1203.26 1301.9 1203.42 1304.68 1202.78C1306.06 1202.47 1307.45 1202.15 1308.84 1201.84C1308.32 1200.59 1307.8 1199.33 1307.28 1198.08C1306.24 1195.57 1304.85 1194.47 1303.12 1194.78C1301.38 1195.1 1300.18 1195.73 1299.48 1196.67C1298.78 1197.61 1290.12 1198.08 1273.49 1198.08C1256.86 1198.08 1248.02 1197.45 1246.98 1196.2C1245.94 1194.94 1244.9 1194.31 1243.86 1194.31C1242.82 1194.31 1241.61 1194.78 1240.22 1195.73ZM1242.3 1197.14C1242.82 1197.3 1243.34 1197.45 1243.86 1197.61C1244.9 1197.92 1245.42 1198.71 1245.42 1199.96C1245.42 1200.59 1245.42 1201.21 1245.42 1201.84C1244.72 1201.68 1244.04 1201.53 1243.34 1201.37C1242.65 1201.21 1241.96 1201.06 1241.26 1200.9C1241.44 1200.27 1241.61 1199.65 1241.78 1199.02C1241.96 1198.39 1242.13 1197.77 1242.3 1197.14ZM1224.63 1214.08C1223.25 1215.33 1222.73 1216.9 1223.07 1218.78C1223.41 1220.67 1224.11 1221.77 1225.15 1222.08C1226.19 1222.39 1227.57 1222.39 1229.31 1222.08C1231.04 1221.77 1232.25 1220.98 1232.95 1219.73C1233.64 1218.47 1242.13 1217.84 1258.42 1217.84C1274.71 1217.84 1283.19 1218.47 1283.89 1219.73C1284.58 1220.98 1286.14 1221.61 1288.56 1221.61C1290.99 1221.61 1292.38 1221.3 1292.72 1220.67C1293.06 1220.04 1292.9 1218.47 1292.2 1215.96C1291.51 1213.45 1290.3 1212.2 1288.56 1212.2C1286.83 1212.2 1285.44 1212.83 1284.41 1214.08C1283.37 1215.33 1274.53 1215.96 1257.9 1215.96C1241.26 1215.96 1231.91 1215.33 1229.83 1214.08C1227.75 1212.83 1226.01 1212.83 1224.63 1214.08ZM1289.08 1215.49C1289.78 1215.65 1290.47 1215.8 1291.16 1215.96C1290.99 1216.43 1290.82 1216.9 1290.64 1217.37C1290.3 1218.31 1289.43 1218.62 1288.04 1218.31C1287.35 1218.15 1286.66 1218 1285.96 1217.84C1286.14 1217.37 1286.31 1216.9 1286.48 1216.43C1286.83 1215.49 1287.7 1215.18 1289.08 1215.49ZM1201.24 1230.55C1200.2 1231.49 1199.68 1232.74 1199.68 1234.31C1199.68 1235.88 1200.2 1237.14 1201.24 1238.08C1202.28 1239.02 1203.66 1239.49 1205.4 1239.49C1207.13 1239.49 1208.34 1238.86 1209.04 1237.61C1209.73 1236.36 1218.21 1235.72 1234.51 1235.72C1250.8 1235.72 1259.28 1236.36 1259.97 1237.61C1260.67 1238.86 1261.88 1239.65 1263.61 1239.96C1265.35 1240.27 1266.91 1239.65 1268.29 1238.08C1269.67 1236.51 1269.85 1234.78 1268.81 1232.9C1267.77 1231.02 1266.39 1230.08 1264.65 1230.08C1262.92 1230.08 1261.71 1230.71 1261.01 1231.96C1260.32 1233.21 1251.84 1233.84 1235.54 1233.84C1219.25 1233.84 1210.77 1233.21 1210.07 1231.96C1209.38 1230.71 1208 1229.92 1205.92 1229.61C1203.84 1229.3 1202.28 1229.61 1201.24 1230.55ZM1203.84 1231.96C1204.53 1232.27 1205.22 1232.59 1205.92 1232.9C1207.3 1233.53 1207.82 1234.31 1207.48 1235.25C1207.13 1236.2 1206.26 1236.51 1204.88 1236.2C1204.18 1236.04 1203.49 1235.88 1202.8 1235.72C1202.97 1235.09 1203.14 1234.47 1203.32 1233.84C1203.49 1233.21 1203.66 1232.59 1203.84 1231.96Z" fill="#426077" fill-opacity="0.35"/>
</svg>
