<?xml version="1.0" encoding="utf-8"?>
<!-- Generator: Adobe Illustrator 25.2.1, SVG Export Plug-In . SVG Version: 6.00 Build 0)  -->
<svg version="1.1" id="Ebene_1" xmlns="http://www.w3.org/2000/svg" xmlns:xlink="http://www.w3.org/1999/xlink" x="0px" y="0px"
	 viewBox="0 0 570.5 113.4" style="enable-background:new 0 0 570.5 113.4;" xml:space="preserve">
<style type="text/css">
	.st0{fill:#099EE1;}
</style>
<g>
	<path class="st0" d="M182,55.5l-25.6-30.2h-6.6v62.8h9.5V44.5l22.6,27l22.9-28v44.5h9.5V25.3h-6.6L182,55.5z M265.2,46.1
		c-4-3.4-9.2-5.3-14.5-5.2c-4,0-7.9,1-11.3,3c-11.7,7.1-15.4,22.2-8.3,33.9c2,3.4,4.9,6.2,8.2,8.3c3.5,2,7.5,3,11.6,3
		c5.2,0.1,10.3-1.8,14.2-5.2v4.2h9V41.9h-9V46.1z M264.9,73.6c-3,4.1-7.7,6.5-12.7,6.6c-8.3,0.1-15.2-6.5-15.3-14.8
		c0-0.1,0-0.3,0-0.4c0-8.1,5.9-15.2,14.9-15.2c5.2,0,10,2.5,13.2,6.6L264.9,73.6z M332.7,41.9h-13.2l-19.3,17.8V25.3h-9.3v62.8h9.3
		V65.5l22.9,22.6h12.4l-26-25.4L332.7,41.9z M360.6,40.9c-13.1,0-22.5,10.2-22.5,24.1s10.4,24.1,23.9,24.1c9.4,0,16-4.2,19.5-8.7
		l-6.1-5.8c-2.6,3-6.4,6.3-13.3,6.3c-7.9,0-14.5-6.1-14.9-14h35.6c0.1-0.7,0.1-1.3,0.1-2C382.9,51.3,373.5,40.9,360.6,40.9
		L360.6,40.9z M348,59.1c1.6-5.9,6.9-10,13-10c5.9,0.2,10.9,4.3,12.2,10H348z M444.1,60.3c-4.6-1.2-8.3-2.3-8.3-5.4
		c0-3.6,3.8-5.8,8.4-5.8c3.6,0.1,7.1,1.4,9.9,3.6L459,46c-4.4-3.5-9.8-5.3-15.4-5.1c-8.3,0-17.1,4.5-17.1,14.4c0,6.5,5,10,10.6,11.9
		c6.8,2.3,14.5,2.6,14.5,7.9c0,3.6-4,5.8-8.1,5.8c-5-0.1-9.8-1.9-13.7-5.1l-4.8,6.9c5.3,4.3,11.9,6.5,18.7,6.4
		c9,0,17.2-5.4,17.2-14.2C461,65.4,451.4,62.1,444.1,60.3z M469,88.1h9.3V41.9H469L469,88.1z M473.6,22.8c-3.4,0-6.1,2.7-6.1,6.1
		c0,0,0,0.1,0,0.1c-0.1,3.3,2.6,6,5.9,6.1c0.1,0,0.1,0,0.2,0c3.4,0.1,6.1-2.6,6.2-6c0,0,0-0.1,0-0.1
		C479.8,25.6,477.1,22.8,473.6,22.8C473.7,22.8,473.7,22.8,473.6,22.8z M503.9,29.1h-9.4v42.3c0,5,1,9.2,3.7,12.3
		c3,3.3,7.3,5.4,13.1,5.4c2.5,0,4.9-0.3,7.3-1l-1.9-8.4c-1.7,0.4-3.4,0.6-5.1,0.6c-2.5,0-5.1-0.9-6.4-2.5c-1.2-1.4-1.4-3.4-1.4-5.9
		V50.3h14.8v-8.4h-14.8L503.9,29.1z M570.5,65c0-13.7-9.3-24.1-22.2-24.1c-13.1,0-22.5,10.2-22.5,24.1s10.4,24.1,23.9,24.1
		c9.4,0,16-4.2,19.5-8.7l-6.1-5.8c-2.7,3-6.4,6.3-13.3,6.3c-7.9,0-14.5-6.1-14.9-14h35.6C570.4,66.3,570.4,65.6,570.5,65L570.5,65z
		 M535.6,59.1c1.6-5.9,6.9-10,13-10c5.9,0.2,10.9,4.3,12.2,10H535.6z M404.7,47.2v-5.3h-9v46.2h9.3V57.5c2.5-4.4,7.7-7.8,12.5-7.8
		h0.8v-8.8C411.6,41,406.9,44.1,404.7,47.2z"/>
	<path class="st0" d="M113.4,25.1h-25v-25H77v20.2L56.7,0L36.3,20.4V0.1H25v25H0v11.4h20.2L0,56.7l20.1,20.1H0v11.3h25v25h11.3V93
		l20.3,20.4L77,93v20.2h11.3v-25h25V76.8H93.2l20.1-20.1L93.1,36.4h20.3V25.1z M97.1,56.7L56.7,97.2L16.2,56.6l40.4-40.4L97.1,56.7z
		"/>
</g>
</svg>
